<?xml version="1.0" standalone="no"?>
<!DOCTYPE svg PUBLIC "-//W3C//DTD SVG 20010904//EN"
 "http://www.w3.org/TR/2001/REC-SVG-20010904/DTD/svg10.dtd">
<svg version="1.0" xmlns="http://www.w3.org/2000/svg"
   viewBox="0 0 318.000000 108.000000"
 preserveAspectRatio="xMidYMid meet">
<metadata>
Created by potrace 1.16, written by Peter Selinger 2001-2019
</metadata>
<g transform="translate(0.000000,108.000000) scale(0.100000,-0.100000)"
 stroke="none">
<path d="M2126 949 c-20 -16 -26 -29 -26 -58 0 -47 24 -71 72 -71 70 0 102 76
53 125 -30 30 -64 32 -99 4z"/>
<path d="M160 732 c-30 -10 -54 -22 -52 -27 1 -6 10 -29 19 -51 l17 -41 33 13
c18 8 60 14 93 14 51 0 65 -4 85 -25 14 -13 25 -32 25 -42 0 -16 -10 -18 -97
-18 -81 0 -104 -4 -133 -21 -131 -77 -91 -257 61 -272 70 -7 115 5 154 40 l35
30 6 -31 c6 -30 9 -31 56 -31 l50 0 -4 173 c-3 159 -5 175 -28 215 -48 85
-183 116 -320 74z m194 -252 c34 -12 35 -58 3 -95 -49 -58 -159 -38 -159 28 0
62 80 96 156 67z"/>
<path d="M705 726 c-27 -13 -60 -34 -72 -47 -80 -87 -84 -244 -10 -335 64 -77
200 -107 294 -64 l42 19 -16 46 c-12 36 -19 45 -32 39 -9 -4 -41 -9 -71 -11
-50 -5 -60 -2 -88 22 -64 54 -67 152 -6 213 32 32 37 34 86 29 29 -2 63 -8 74
-11 19 -7 24 -2 37 39 l16 46 -42 19 c-60 28 -149 26 -212 -4z"/>
<path d="M1099 722 c-45 -23 -59 -37 -84 -86 -79 -156 1 -357 149 -373 62 -7
109 3 139 31 l26 24 3 -111 3 -112 65 0 65 0 3 323 2 322 -44 0 c-42 0 -45 -2
-56 -35 l-12 -36 -24 26 c-56 61 -150 72 -235 27z m189 -98 c70 -48 70 -190 0
-238 -29 -20 -87 -20 -116 0 -70 48 -70 190 0 238 12 9 38 16 58 16 20 0 46
-7 58 -16z"/>
<path d="M2778 741 c-76 -25 -125 -75 -152 -155 -57 -167 54 -326 227 -326
148 0 241 95 240 245 -1 102 -45 180 -128 222 -35 19 -148 26 -187 14z m138
-116 c35 -22 57 -81 52 -137 -6 -62 -33 -99 -84 -117 -34 -12 -44 -12 -69 0
-44 22 -68 62 -72 121 -9 118 85 190 173 133z"/>
<path d="M1560 573 c0 -188 10 -226 69 -276 60 -50 167 -50 231 1 l38 31 12
-29 c11 -27 17 -30 56 -30 l44 0 0 235 0 235 -65 0 -65 0 0 -141 c0 -155 -11
-197 -56 -218 -41 -18 -74 -13 -105 18 l-29 29 0 156 0 156 -65 0 -65 0 0
-167z"/>
<path d="M2110 505 l0 -235 65 0 65 0 0 235 0 235 -65 0 -65 0 0 -235z"/>
<path d="M2330 505 l0 -235 70 0 70 0 0 144 c0 141 1 145 26 175 18 21 38 33
65 37 l39 7 0 53 c0 53 0 54 -30 54 -42 0 -96 -24 -112 -49 -18 -29 -25 -26
-32 14 -7 34 -8 35 -51 35 l-45 0 0 -235z"/>
</g>
</svg>
