<svg id="svg" version="1.1" xmlns="http://www.w3.org/2000/svg" xmlns:xlink="http://www.w3.org/1999/xlink" viewBox="0, 0, 400,366.6666666666667"><g id="svgg"><path id="path0" d="M174.128 45.116 C 172.917 45.254,171.266 45.638,170.459 45.969 C 169.651 46.300,167.530 46.815,165.745 47.113 C 163.960 47.411,162.227 47.897,161.892 48.193 C 161.558 48.489,160.294 48.928,159.083 49.168 C 157.872 49.409,156.055 49.985,155.046 50.449 C 154.037 50.913,152.633 51.416,151.927 51.567 C 151.220 51.718,149.817 52.295,148.807 52.851 C 147.798 53.406,146.504 53.969,145.932 54.101 C 145.360 54.233,144.561 54.650,144.157 55.026 C 143.753 55.402,142.818 55.819,142.078 55.953 C 141.339 56.087,140.156 56.570,139.450 57.026 C 138.743 57.483,137.616 58.046,136.945 58.277 C 136.274 58.508,135.229 59.114,134.623 59.624 C 134.017 60.133,133.299 60.550,133.028 60.550 C 132.756 60.550,132.067 60.926,131.496 61.384 C 130.926 61.843,129.845 62.498,129.094 62.841 C 128.343 63.183,127.435 63.726,127.076 64.048 C 125.938 65.064,122.037 67.521,121.560 67.522 C 121.307 67.523,121.101 67.675,121.101 67.860 C 121.101 68.045,120.507 68.564,119.782 69.012 C 119.056 69.461,118.078 70.176,117.608 70.602 C 117.138 71.028,116.287 71.800,115.716 72.317 C 115.146 72.835,114.207 73.568,113.629 73.946 C 112.508 74.680,111.480 75.593,108.224 78.747 C 107.095 79.840,106.008 80.734,105.809 80.734 C 105.609 80.734,105.226 81.144,104.957 81.645 C 104.689 82.147,104.156 82.656,103.772 82.778 C 103.388 82.900,102.901 83.380,102.689 83.845 C 102.478 84.310,101.910 84.901,101.427 85.159 C 100.945 85.417,100.550 85.760,100.550 85.921 C 100.550 86.082,99.649 87.168,98.546 88.336 C 95.997 91.036,92.448 95.271,91.540 96.697 C 91.154 97.303,90.547 98.014,90.190 98.278 C 89.833 98.541,89.541 98.970,89.541 99.230 C 89.541 99.490,89.194 100.017,88.770 100.401 C 88.345 100.785,87.748 101.595,87.442 102.201 C 87.137 102.807,86.536 103.686,86.107 104.155 C 85.678 104.624,84.995 105.643,84.590 106.421 C 82.746 109.958,81.850 111.458,81.313 111.903 C 80.995 112.167,80.734 112.579,80.734 112.817 C 80.734 113.056,80.215 114.068,79.580 115.066 C 78.946 116.064,78.268 117.451,78.075 118.147 C 77.881 118.844,77.327 119.933,76.843 120.567 C 76.359 121.202,75.963 122.064,75.963 122.484 C 75.963 122.903,75.567 123.718,75.082 124.294 C 74.597 124.870,74.002 126.078,73.760 126.979 C 73.517 127.879,72.923 129.360,72.439 130.268 C 71.955 131.177,71.560 132.348,71.560 132.871 C 71.560 133.393,71.148 134.633,70.644 135.626 C 70.140 136.619,69.540 138.422,69.311 139.633 C 69.081 140.844,68.606 142.330,68.255 142.936 C 67.507 144.227,67.298 145.037,66.793 148.594 C 66.587 150.047,66.180 151.697,65.888 152.261 C 63.435 157.006,63.529 205.892,66.006 212.879 C 66.392 213.970,66.896 216.089,67.126 217.587 C 67.355 219.086,67.846 220.820,68.218 221.441 C 68.589 222.061,69.090 223.608,69.330 224.878 C 69.571 226.148,70.087 227.728,70.477 228.389 C 70.867 229.050,71.354 230.477,71.560 231.559 C 71.765 232.641,72.164 233.786,72.447 234.103 C 72.730 234.420,73.243 235.670,73.587 236.881 C 73.930 238.092,74.503 239.413,74.859 239.817 C 75.215 240.220,75.712 241.211,75.963 242.018 C 76.215 242.826,76.710 243.817,77.063 244.220 C 77.417 244.624,77.984 245.808,78.323 246.852 C 78.662 247.897,79.169 248.942,79.450 249.175 C 79.731 249.408,80.240 250.329,80.581 251.222 C 80.922 252.114,81.329 252.844,81.485 252.844 C 81.641 252.844,82.129 253.587,82.569 254.495 C 83.008 255.404,83.498 256.147,83.657 256.147 C 83.816 256.147,84.297 256.963,84.727 257.961 C 85.156 258.958,85.678 259.881,85.888 260.010 C 86.097 260.139,86.660 260.865,87.138 261.624 C 87.617 262.382,88.249 263.243,88.544 263.537 C 88.838 263.832,89.352 264.601,89.687 265.247 C 90.021 265.893,90.444 266.422,90.627 266.422 C 90.810 266.422,91.069 266.766,91.202 267.187 C 91.437 267.924,92.137 268.817,94.510 271.400 C 95.124 272.068,96.280 273.406,97.079 274.372 C 100.691 278.740,107.785 285.765,111.644 288.796 C 112.195 289.229,113.114 290.028,113.686 290.571 C 114.258 291.115,115.279 291.972,115.955 292.477 C 116.632 292.982,117.565 293.784,118.030 294.261 C 118.495 294.737,119.350 295.397,119.930 295.728 C 122.329 297.096,123.473 297.851,124.598 298.807 C 125.251 299.362,126.022 299.817,126.313 299.817 C 126.603 299.817,127.395 300.312,128.073 300.917 C 128.752 301.523,129.506 302.018,129.750 302.018 C 129.993 302.018,131.033 302.596,132.060 303.303 C 133.087 304.009,134.084 304.587,134.275 304.587 C 134.466 304.587,135.094 304.984,135.670 305.468 C 136.246 305.953,137.388 306.530,138.209 306.751 C 139.029 306.972,139.985 307.467,140.333 307.852 C 140.681 308.237,141.559 308.663,142.285 308.799 C 143.010 308.935,144.509 309.529,145.615 310.119 C 146.721 310.710,147.877 311.193,148.185 311.193 C 148.492 311.193,149.431 311.596,150.273 312.089 C 151.114 312.582,152.615 313.181,153.608 313.419 C 154.600 313.658,155.775 314.078,156.217 314.352 C 156.659 314.626,158.402 315.158,160.089 315.535 C 161.777 315.911,163.597 316.506,164.135 316.859 C 164.673 317.211,166.387 317.657,167.944 317.851 C 169.501 318.044,171.778 318.542,173.002 318.957 C 180.280 321.424,221.307 321.427,228.309 318.961 C 229.447 318.560,231.512 318.118,232.896 317.979 C 234.282 317.839,236.269 317.329,237.320 316.843 C 238.369 316.357,240.273 315.741,241.550 315.473 C 242.828 315.205,244.282 314.729,244.781 314.415 C 245.280 314.101,246.596 313.642,247.706 313.396 C 248.817 313.149,250.303 312.568,251.009 312.105 C 251.716 311.641,252.872 311.149,253.578 311.010 C 254.284 310.872,255.447 310.382,256.161 309.921 C 256.875 309.460,258.031 308.959,258.730 308.808 C 259.428 308.657,260.413 308.245,260.917 307.894 C 261.422 307.543,262.578 306.892,263.486 306.448 C 266.598 304.925,268.867 303.669,269.994 302.844 C 270.615 302.390,271.274 302.018,271.458 302.018 C 271.643 302.018,272.349 301.523,273.028 300.917 C 273.706 300.312,274.453 299.817,274.688 299.817 C 274.923 299.817,275.595 299.403,276.181 298.897 C 276.768 298.391,277.578 297.877,277.982 297.755 C 278.385 297.632,279.128 297.169,279.633 296.725 C 280.138 296.280,280.904 295.680,281.336 295.390 C 283.443 293.976,288.091 290.252,289.900 288.529 C 291.015 287.467,292.216 286.507,292.569 286.394 C 292.922 286.281,293.211 286.054,293.211 285.889 C 293.211 285.606,293.743 285.060,298.165 280.804 C 299.174 279.833,300.908 277.994,302.018 276.717 C 303.128 275.441,304.573 273.870,305.229 273.227 C 305.885 272.584,306.422 271.869,306.422 271.638 C 306.422 271.407,306.751 271.043,307.152 270.828 C 307.554 270.613,308.155 269.905,308.488 269.255 C 309.176 267.914,310.536 266.117,312.018 264.595 C 312.573 264.025,313.028 263.401,313.028 263.207 C 313.028 263.014,313.604 262.131,314.308 261.244 C 315.013 260.358,315.591 259.436,315.593 259.195 C 315.595 258.954,315.907 258.540,316.286 258.274 C 316.937 257.818,317.331 257.167,319.343 253.211 C 319.805 252.303,320.544 251.054,320.985 250.436 C 321.425 249.819,321.905 248.828,322.049 248.234 C 322.194 247.641,322.697 246.766,323.166 246.289 C 323.635 245.812,324.121 244.877,324.246 244.211 C 324.371 243.544,324.776 242.674,325.147 242.277 C 325.517 241.879,326.005 240.833,326.230 239.951 C 326.798 237.729,327.375 236.330,327.722 236.330 C 327.883 236.330,328.121 235.794,328.251 235.138 C 328.577 233.484,329.201 231.909,329.959 230.826 C 330.312 230.321,330.775 228.930,330.988 227.735 C 331.200 226.540,331.594 225.218,331.862 224.799 C 332.413 223.937,333.065 221.510,333.384 219.136 C 333.502 218.257,333.825 217.101,334.100 216.567 C 334.376 216.033,334.794 214.275,335.029 212.661 C 335.264 211.046,335.804 208.486,336.228 206.972 C 337.509 202.402,338.636 186.422,338.226 178.655 C 337.271 160.565,337.278 160.633,336.331 157.855 C 335.826 156.372,335.413 154.605,335.413 153.928 C 335.413 152.204,334.700 148.956,334.119 148.036 C 333.851 147.612,333.451 145.964,333.230 144.374 C 333.009 142.784,332.504 140.813,332.108 139.995 C 331.711 139.176,331.222 137.638,331.021 136.578 C 330.820 135.517,330.253 133.954,329.761 133.104 C 329.270 132.255,328.673 130.817,328.436 129.908 C 328.199 129.000,327.780 128.004,327.505 127.696 C 327.230 127.387,326.760 126.194,326.461 125.044 C 326.161 123.894,325.584 122.597,325.178 122.161 C 324.772 121.725,324.330 120.868,324.196 120.255 C 324.061 119.643,323.475 118.484,322.893 117.681 C 322.311 116.877,321.835 116.036,321.835 115.810 C 321.835 115.584,321.452 114.825,320.985 114.122 C 320.518 113.419,319.908 112.266,319.629 111.560 C 319.351 110.853,318.850 109.862,318.517 109.358 C 318.184 108.853,317.224 107.367,316.385 106.055 C 314.549 103.185,313.028 101.325,313.028 101.948 C 313.028 102.198,313.564 103.204,314.220 104.182 C 317.602 109.226,319.298 113.480,321.626 122.752 C 322.327 125.546,323.338 133.443,323.577 137.997 C 323.745 141.205,323.496 143.951,321.978 155.591 C 321.860 156.497,321.546 157.659,321.280 158.174 C 321.014 158.689,320.538 160.359,320.222 161.887 C 319.907 163.414,319.234 165.555,318.727 166.644 C 318.220 167.733,317.804 168.891,317.802 169.217 C 317.800 169.543,317.464 170.234,317.056 170.752 C 316.648 171.271,316.066 172.400,315.762 173.261 C 315.459 174.122,314.986 175.082,314.712 175.395 C 314.438 175.707,313.842 176.706,313.388 177.615 C 312.934 178.523,312.444 179.349,312.299 179.450 C 312.038 179.632,310.580 181.761,309.174 184.013 C 306.728 187.933,301.350 193.654,296.160 197.857 L 293.420 200.076 293.393 202.148 C 293.376 203.471,293.079 204.817,292.572 205.872 C 292.135 206.780,291.598 208.662,291.378 210.054 C 291.158 211.446,290.670 212.976,290.293 213.455 C 289.916 213.934,289.495 215.148,289.357 216.153 C 289.219 217.158,288.725 218.541,288.260 219.226 C 287.795 219.911,287.297 221.026,287.154 221.704 C 287.010 222.381,286.529 223.431,286.086 224.037 C 285.642 224.642,284.986 225.922,284.628 226.881 C 284.269 227.839,283.847 228.624,283.689 228.624 C 283.532 228.624,283.119 229.366,282.772 230.274 C 282.426 231.181,281.930 232.048,281.669 232.200 C 281.409 232.352,280.862 233.138,280.454 233.945 C 280.045 234.752,279.363 235.727,278.938 236.112 C 278.513 236.496,278.165 237.007,278.165 237.245 C 278.165 238.711,267.253 251.101,262.569 254.953 C 260.640 256.540,258.537 258.322,257.315 259.406 C 256.774 259.887,255.832 260.493,255.222 260.752 C 254.612 261.012,253.802 261.568,253.422 261.988 C 253.042 262.408,252.549 262.752,252.327 262.752 C 252.106 262.752,251.111 263.330,250.118 264.037 C 249.124 264.743,248.121 265.321,247.889 265.321 C 247.657 265.321,247.094 265.718,246.638 266.204 C 246.182 266.689,245.274 267.186,244.620 267.309 C 243.966 267.432,243.080 267.860,242.650 268.260 C 242.220 268.661,241.076 269.257,240.109 269.586 C 239.141 269.914,237.972 270.479,237.512 270.841 C 237.052 271.203,235.979 271.611,235.127 271.748 C 234.275 271.884,233.044 272.304,232.392 272.679 C 231.739 273.055,229.975 273.616,228.471 273.927 C 226.967 274.238,225.188 274.811,224.519 275.202 C 223.784 275.631,222.214 276.010,220.550 276.160 C 219.037 276.296,216.560 276.749,215.046 277.167 C 210.676 278.373,193.274 278.547,188.073 277.437 C 186.055 277.006,183.000 276.478,181.284 276.263 C 179.342 276.020,177.543 275.543,176.517 275.000 C 175.610 274.521,174.454 274.127,173.948 274.124 C 172.846 274.120,170.150 273.324,168.624 272.553 C 168.018 272.247,166.699 271.806,165.693 271.573 C 164.686 271.340,163.613 270.928,163.307 270.659 C 163.002 270.389,161.927 269.891,160.917 269.553 C 159.908 269.215,158.835 268.716,158.532 268.446 C 158.229 268.175,157.073 267.518,155.963 266.986 C 152.755 265.447,151.417 264.651,150.816 263.920 C 150.507 263.546,149.831 263.134,149.314 263.004 C 148.796 262.874,147.974 262.375,147.489 261.896 C 147.003 261.417,146.213 260.819,145.734 260.567 C 144.865 260.110,141.633 257.733,141.284 257.295 C 141.183 257.168,139.697 255.826,137.982 254.313 C 134.050 250.846,134.623 251.419,131.003 247.339 C 129.302 245.422,127.817 243.771,127.704 243.670 C 127.590 243.569,127.129 242.991,126.679 242.385 C 125.828 241.241,125.113 240.339,123.337 238.165 C 122.760 237.459,122.019 236.303,121.691 235.596 C 121.128 234.383,120.180 232.909,118.621 230.826 C 118.244 230.321,117.712 229.330,117.440 228.624 C 117.168 227.917,116.667 227.009,116.326 226.606 C 115.985 226.202,115.495 225.090,115.238 224.135 C 114.981 223.181,114.542 222.209,114.262 221.977 C 113.983 221.745,113.489 220.627,113.165 219.493 C 112.840 218.359,112.374 217.183,112.128 216.881 C 111.541 216.158,110.937 214.466,110.651 212.742 C 110.525 211.979,110.111 210.823,109.731 210.173 C 109.351 209.523,108.857 207.633,108.633 205.974 C 108.408 204.315,107.896 202.003,107.493 200.837 C 105.705 195.650,105.733 168.660,107.532 163.547 C 107.946 162.369,108.453 160.057,108.659 158.409 C 108.864 156.760,109.345 154.881,109.727 154.231 C 110.109 153.581,110.525 152.425,110.651 151.662 C 110.940 149.922,111.544 148.238,112.136 147.523 C 112.387 147.220,112.783 146.229,113.016 145.321 C 113.249 144.413,113.732 143.257,114.089 142.752 C 114.446 142.248,115.013 141.023,115.349 140.030 C 115.686 139.038,116.182 137.965,116.452 137.645 C 116.722 137.326,117.166 136.486,117.439 135.780 C 117.712 135.073,118.243 134.083,118.619 133.578 C 119.953 131.790,122.200 128.252,122.201 127.938 C 122.202 127.650,122.903 126.724,125.164 124.027 C 125.592 123.517,126.132 122.748,126.365 122.319 C 126.802 121.516,132.077 115.708,135.100 112.704 C 138.597 109.229,143.204 105.389,145.195 104.289 C 145.674 104.024,146.501 103.405,147.032 102.913 C 147.563 102.421,148.198 102.018,148.443 102.018 C 148.689 102.018,149.513 101.523,150.275 100.917 C 151.037 100.312,151.857 99.817,152.097 99.817 C 152.336 99.817,152.922 99.402,153.398 98.895 C 153.875 98.388,154.893 97.804,155.663 97.597 C 156.432 97.390,157.351 96.914,157.705 96.540 C 158.059 96.166,159.174 95.582,160.183 95.243 C 161.193 94.903,162.266 94.413,162.569 94.154 C 162.872 93.894,163.945 93.484,164.954 93.243 C 165.963 93.002,167.532 92.423,168.440 91.957 C 169.349 91.491,170.886 90.993,171.856 90.851 C 172.826 90.708,174.395 90.208,175.342 89.740 C 176.330 89.252,178.159 88.779,179.633 88.631 C 181.046 88.488,183.110 88.034,184.220 87.621 C 185.902 86.995,187.212 86.858,192.079 86.800 C 197.522 86.736,197.937 86.682,198.187 86.008 C 198.334 85.610,199.008 84.851,199.686 84.322 C 200.363 83.793,201.578 82.763,202.385 82.033 C 203.193 81.303,204.339 80.444,204.932 80.124 C 205.526 79.804,206.269 79.226,206.584 78.839 C 206.898 78.453,207.494 77.937,207.908 77.692 C 209.803 76.572,211.196 75.712,212.415 74.911 C 214.761 73.370,219.065 71.193,219.766 71.193 C 220.141 71.193,221.050 70.784,221.786 70.285 C 222.522 69.785,224.151 69.110,225.407 68.785 C 226.662 68.460,228.010 68.022,228.403 67.812 C 228.796 67.602,231.359 67.025,234.100 66.529 C 236.840 66.034,239.826 65.487,240.734 65.314 C 242.994 64.882,256.310 64.903,258.349 65.341 C 259.257 65.537,262.362 66.095,265.248 66.581 C 268.135 67.067,270.694 67.628,270.936 67.828 C 271.178 68.028,272.440 68.466,273.739 68.803 C 275.039 69.139,276.505 69.731,276.998 70.119 C 277.491 70.506,278.556 71.002,279.366 71.220 C 280.175 71.437,281.471 72.016,282.246 72.505 C 283.021 72.994,283.792 73.394,283.958 73.394 C 284.125 73.394,285.553 74.261,287.131 75.321 C 288.709 76.381,290.518 77.578,291.150 77.982 C 292.247 78.682,293.216 79.512,295.543 81.746 C 296.546 82.709,296.571 82.715,296.143 81.872 C 295.693 80.987,293.606 78.860,291.322 76.957 C 290.645 76.394,289.183 75.123,288.073 74.133 C 285.911 72.204,284.507 71.139,281.743 69.333 C 280.784 68.707,280.000 68.075,280.000 67.929 C 280.000 67.783,279.339 67.373,278.532 67.017 C 277.725 66.660,277.064 66.218,277.064 66.033 C 277.064 65.849,276.447 65.440,275.693 65.125 C 274.939 64.810,273.966 64.218,273.530 63.809 C 272.688 63.017,271.422 62.262,268.404 60.751 C 267.375 60.235,266.250 59.500,265.903 59.117 C 265.557 58.735,264.729 58.319,264.063 58.194 C 263.398 58.069,262.574 57.659,262.234 57.283 C 261.893 56.907,260.838 56.386,259.890 56.126 C 258.941 55.866,257.590 55.269,256.887 54.799 C 256.184 54.329,255.334 53.945,254.998 53.945 C 254.662 53.945,253.490 53.473,252.394 52.897 C 251.298 52.320,249.767 51.730,248.993 51.584 C 248.219 51.439,246.829 50.927,245.903 50.446 C 244.978 49.964,243.477 49.457,242.569 49.319 C 241.661 49.180,240.166 48.678,239.249 48.203 C 238.324 47.725,236.360 47.181,234.845 46.984 C 233.341 46.787,231.202 46.251,230.092 45.791 L 228.073 44.954 202.202 44.909 C 187.972 44.885,175.339 44.978,174.128 45.116 M297.661 83.578 C 298.285 84.373,298.796 84.758,299.238 84.765 C 299.425 84.768,299.190 84.358,298.716 83.853 C 297.741 82.816,296.889 82.593,297.661 83.578 M300.040 86.027 C 300.258 86.596,301.284 87.124,301.284 86.667 C 301.284 86.302,300.487 85.505,300.122 85.505 C 299.966 85.505,299.930 85.740,300.040 86.027 M309.543 97.250 C 309.910 97.655,310.289 97.907,310.386 97.809 C 310.633 97.563,309.718 96.514,309.256 96.514 C 309.048 96.514,309.177 96.845,309.543 97.250 M311.739 100.180 C 312.318 100.783,312.872 101.195,312.972 101.096 C 313.214 100.853,311.532 99.083,311.060 99.083 C 310.856 99.083,311.161 99.576,311.739 100.180 " stroke="none" fill-rule="evenodd"></path><path id="path1" d="M296.514 82.385 C 296.765 82.688,297.136 82.936,297.338 82.936 C 297.542 82.936,297.503 82.692,297.248 82.385 C 296.996 82.083,296.626 81.835,296.424 81.835 C 296.219 81.835,296.259 82.078,296.514 82.385 M197.298 86.908 C 196.968 86.973,196.697 87.222,196.697 87.462 C 196.697 87.830,194.930 90.023,189.888 95.909 C 189.394 96.485,188.991 97.135,188.991 97.354 C 188.991 97.572,188.674 98.092,188.286 98.508 C 187.562 99.286,186.604 100.910,184.588 104.771 C 183.956 105.982,183.285 107.129,183.096 107.321 C 182.907 107.513,182.752 107.950,182.752 108.293 C 182.752 108.636,182.275 109.823,181.692 110.932 C 181.109 112.040,180.349 114.080,180.004 115.465 C 179.659 116.849,179.199 118.199,178.982 118.464 C 178.765 118.729,178.200 121.123,177.727 123.785 C 177.254 126.446,176.715 129.367,176.529 130.275 C 176.090 132.417,176.089 147.211,176.528 149.358 C 176.714 150.266,177.272 153.292,177.768 156.082 C 178.265 158.873,178.831 161.350,179.027 161.587 C 179.224 161.824,179.657 163.092,179.992 164.404 C 180.326 165.716,180.974 167.367,181.433 168.073 C 181.891 168.780,182.384 169.833,182.528 170.414 C 182.672 170.995,183.194 172.066,183.689 172.793 C 184.183 173.520,184.587 174.382,184.587 174.709 C 184.587 175.035,185.080 176.029,185.681 176.917 C 186.283 177.805,186.779 178.702,186.782 178.909 C 186.786 179.116,187.243 179.811,187.798 180.454 C 188.353 181.096,189.385 182.479,190.092 183.529 C 190.798 184.578,191.706 185.792,192.110 186.226 C 192.514 186.660,193.275 187.584,193.802 188.279 C 195.968 191.134,203.949 198.667,206.394 200.165 C 208.647 201.545,210.823 203.107,211.104 203.547 C 211.257 203.786,212.000 204.180,212.755 204.421 C 213.510 204.663,214.459 205.151,214.862 205.505 C 215.266 205.859,216.257 206.356,217.064 206.610 C 217.872 206.864,219.193 207.450,220.000 207.912 C 220.807 208.374,222.128 208.873,222.936 209.020 C 223.743 209.166,224.982 209.644,225.688 210.082 C 226.394 210.519,228.144 211.083,229.576 211.333 C 231.008 211.584,232.635 212.026,233.191 212.314 C 236.666 214.117,261.936 214.289,265.218 212.532 C 265.623 212.316,267.421 211.810,269.215 211.409 C 271.009 211.007,273.289 210.258,274.282 209.743 C 275.275 209.228,276.406 208.807,276.795 208.807 C 277.183 208.807,277.946 208.491,278.489 208.104 C 279.032 207.717,280.444 207.061,281.626 206.646 C 282.808 206.230,284.040 205.665,284.365 205.391 C 284.689 205.116,285.486 204.681,286.137 204.424 C 286.787 204.166,287.744 203.563,288.262 203.082 C 288.781 202.601,289.611 202.106,290.107 201.982 C 290.603 201.857,291.009 201.600,291.009 201.409 C 291.009 201.219,291.566 200.831,292.246 200.547 C 293.469 200.036,293.484 200.001,293.687 197.171 C 293.800 195.599,294.092 193.156,294.336 191.743 C 295.013 187.815,294.940 175.552,294.216 171.560 C 293.887 169.743,293.501 166.936,293.359 165.321 C 293.215 163.691,292.635 161.039,292.054 159.358 C 291.480 157.694,291.009 155.911,291.009 155.396 C 291.009 154.881,290.679 153.776,290.275 152.940 C 289.871 152.104,289.271 150.337,288.942 149.013 C 288.613 147.689,288.039 146.028,287.666 145.321 C 287.294 144.615,286.653 143.294,286.242 142.385 C 285.831 141.477,285.255 140.321,284.962 139.817 C 284.669 139.312,284.181 138.404,283.878 137.798 C 281.395 132.839,281.489 133.005,279.358 129.790 C 278.702 128.801,278.165 127.712,278.165 127.371 C 278.165 127.029,277.691 126.098,277.111 125.302 C 276.530 124.505,275.944 123.490,275.807 123.046 C 275.671 122.602,275.237 122.137,274.844 122.012 C 274.450 121.888,274.128 121.627,274.128 121.433 C 274.128 120.589,268.104 114.621,263.670 111.072 C 260.211 108.304,258.796 107.129,257.739 106.148 C 257.250 105.695,256.321 105.052,255.673 104.719 C 255.025 104.386,254.083 103.800,253.578 103.417 C 251.909 102.150,248.830 100.183,248.515 100.183 C 248.344 100.183,247.555 99.693,246.763 99.093 C 245.970 98.493,245.055 97.997,244.729 97.992 C 244.404 97.986,243.514 97.486,242.752 96.881 C 241.990 96.275,241.101 95.778,240.775 95.775 C 240.450 95.773,239.476 95.367,238.612 94.872 C 237.747 94.378,236.426 93.862,235.676 93.726 C 234.926 93.589,233.569 93.110,232.661 92.661 C 231.752 92.211,230.101 91.635,228.991 91.380 C 227.881 91.125,226.312 90.623,225.505 90.265 C 224.697 89.907,222.716 89.415,221.101 89.172 C 218.175 88.731,216.346 88.378,213.211 87.649 C 211.613 87.278,198.515 86.667,197.298 86.908 M301.284 86.864 C 301.284 87.292,303.330 89.728,305.229 91.561 C 305.885 92.195,306.422 92.902,306.422 93.132 C 306.422 93.363,306.751 93.728,307.152 93.943 C 307.554 94.158,308.136 94.824,308.446 95.424 C 308.756 96.023,309.174 96.514,309.376 96.514 C 309.889 96.514,308.824 94.903,306.462 92.110 C 303.684 88.823,301.284 86.392,301.284 86.864 M256.440 109.870 C 257.025 110.173,258.313 110.614,259.302 110.851 C 261.105 111.283,261.796 111.650,265.854 114.335 C 269.241 116.575,274.616 122.295,275.596 124.704 C 275.899 125.447,276.450 126.502,276.821 127.048 C 277.801 128.493,279.982 137.019,279.993 139.450 C 280.000 140.891,279.278 144.765,278.389 148.059 C 278.064 149.262,277.798 150.462,277.798 150.727 C 277.798 150.991,277.409 151.823,276.934 152.576 C 276.459 153.329,275.946 154.358,275.793 154.862 C 275.641 155.367,275.198 156.110,274.810 156.514 C 274.421 156.917,273.269 158.309,272.249 159.605 C 270.300 162.084,269.980 162.372,265.698 165.504 C 264.593 166.311,263.554 166.972,263.389 166.972 C 263.224 166.972,262.057 167.455,260.796 168.045 C 254.298 171.082,241.877 170.335,234.999 166.492 C 229.859 163.620,223.410 156.443,222.013 152.041 C 221.769 151.272,221.365 150.312,221.116 149.908 C 219.306 146.982,219.093 133.744,220.802 130.378 C 221.189 129.615,221.736 128.248,222.017 127.339 C 222.298 126.431,222.909 125.221,223.374 124.651 C 223.840 124.080,224.220 123.482,224.220 123.321 C 224.220 122.734,227.759 118.626,229.631 117.042 C 232.962 114.221,234.036 113.394,234.369 113.394 C 234.547 113.394,235.320 112.968,236.087 112.447 C 236.854 111.925,238.664 111.171,240.109 110.771 C 241.554 110.370,242.908 109.900,243.118 109.726 C 244.164 108.857,254.702 108.972,256.440 109.870 " stroke="none" fill-rule="evenodd"></path><path id="path3" d="M240.550 65.334 C 239.743 65.492,236.840 66.029,234.100 66.526 C 231.359 67.023,228.796 67.602,228.403 67.812 C 228.010 68.022,226.662 68.460,225.407 68.785 C 224.151 69.110,222.522 69.785,221.786 70.285 C 221.050 70.784,220.141 71.193,219.766 71.193 C 219.065 71.193,214.761 73.370,212.415 74.911 C 211.196 75.712,209.803 76.572,207.908 77.692 C 207.494 77.937,206.898 78.453,206.584 78.839 C 206.269 79.226,205.526 79.803,204.932 80.123 C 204.339 80.442,203.275 81.225,202.569 81.863 C 201.862 82.501,200.583 83.602,199.725 84.308 C 196.875 86.656,197.326 86.969,203.578 86.992 C 208.509 87.011,211.978 87.380,216.514 88.369 C 217.422 88.568,219.486 88.929,221.101 89.172 C 222.716 89.415,224.697 89.907,225.505 90.265 C 226.312 90.623,227.881 91.125,228.991 91.380 C 230.101 91.635,231.752 92.211,232.661 92.661 C 233.569 93.110,234.926 93.589,235.676 93.726 C 236.426 93.862,237.747 94.378,238.612 94.872 C 239.476 95.367,240.450 95.773,240.775 95.775 C 241.101 95.778,241.990 96.275,242.752 96.881 C 243.514 97.486,244.404 97.986,244.729 97.992 C 245.055 97.997,245.970 98.493,246.763 99.093 C 247.555 99.693,248.344 100.183,248.515 100.183 C 248.830 100.183,251.909 102.150,253.578 103.417 C 254.083 103.800,255.025 104.386,255.673 104.719 C 256.321 105.052,257.250 105.695,257.739 106.148 C 258.796 107.129,260.211 108.304,263.670 111.072 C 268.104 114.621,274.128 120.589,274.128 121.433 C 274.128 121.627,274.450 121.888,274.844 122.012 C 275.237 122.137,275.671 122.602,275.807 123.046 C 275.944 123.490,276.530 124.505,277.111 125.302 C 277.691 126.098,278.165 127.029,278.165 127.371 C 278.165 127.712,278.702 128.801,279.358 129.790 C 281.489 133.005,281.395 132.839,283.878 137.798 C 284.181 138.404,284.669 139.312,284.962 139.817 C 285.255 140.321,285.831 141.477,286.242 142.385 C 286.653 143.294,287.294 144.615,287.666 145.321 C 288.039 146.028,288.613 147.689,288.942 149.013 C 289.271 150.337,289.871 152.104,290.275 152.940 C 290.679 153.776,291.009 154.881,291.009 155.396 C 291.009 155.911,291.480 157.694,292.054 159.358 C 292.635 161.039,293.215 163.691,293.359 165.321 C 293.501 166.936,293.887 169.743,294.216 171.560 C 294.939 175.546,295.013 187.806,294.338 191.743 C 293.757 195.133,293.415 199.633,293.739 199.633 C 295.369 199.633,306.379 188.492,309.174 184.013 C 310.580 181.761,312.038 179.632,312.299 179.450 C 312.444 179.349,312.934 178.523,313.388 177.615 C 313.842 176.706,314.438 175.707,314.712 175.395 C 314.986 175.082,315.459 174.122,315.762 173.261 C 316.066 172.400,316.648 171.271,317.056 170.752 C 317.464 170.234,317.800 169.543,317.802 169.217 C 317.804 168.891,318.220 167.733,318.727 166.644 C 319.234 165.555,319.907 163.414,320.222 161.887 C 320.538 160.359,321.014 158.689,321.280 158.174 C 321.546 157.659,321.860 156.497,321.978 155.591 C 323.496 143.951,323.745 141.205,323.577 137.997 C 323.338 133.443,322.327 125.546,321.626 122.752 C 319.298 113.480,317.602 109.226,314.220 104.182 C 313.564 103.204,313.028 102.213,313.028 101.980 C 313.028 101.747,312.491 100.926,311.835 100.156 C 310.057 98.066,309.165 96.830,308.490 95.515 C 308.156 94.865,307.554 94.158,307.152 93.943 C 306.751 93.728,306.422 93.363,306.422 93.132 C 306.422 92.902,305.885 92.192,305.229 91.556 C 304.573 90.919,303.046 89.282,301.835 87.917 C 299.306 85.067,299.469 85.230,296.508 82.569 C 295.273 81.459,293.821 80.138,293.281 79.633 C 292.742 79.128,291.783 78.385,291.150 77.982 C 290.518 77.578,288.709 76.381,287.131 75.321 C 285.553 74.261,284.125 73.394,283.958 73.394 C 283.792 73.394,283.021 72.994,282.246 72.505 C 281.471 72.016,280.175 71.437,279.366 71.220 C 278.556 71.002,277.491 70.506,276.998 70.119 C 276.505 69.731,275.039 69.139,273.739 68.803 C 272.440 68.466,271.178 68.028,270.936 67.828 C 270.694 67.628,268.135 67.067,265.248 66.581 C 262.362 66.095,259.257 65.537,258.349 65.341 C 256.403 64.923,242.677 64.917,240.550 65.334 " stroke="none" fill-rule="evenodd"></path><path id="path4" d="M173.028 44.041 C 168.639 44.288,167.650 44.486,166.606 45.324 C 166.303 45.567,164.766 45.980,163.190 46.241 C 161.614 46.503,159.963 46.998,159.520 47.341 C 159.078 47.685,157.599 48.174,156.234 48.429 C 154.869 48.684,153.383 49.179,152.931 49.530 C 152.480 49.881,151.202 50.378,150.092 50.633 C 148.982 50.889,147.661 51.471,147.156 51.927 C 146.651 52.382,145.585 52.872,144.787 53.014 C 143.989 53.156,142.889 53.648,142.344 54.107 C 141.799 54.566,140.704 55.045,139.912 55.171 C 139.120 55.298,138.171 55.735,137.802 56.143 C 137.433 56.550,136.499 57.054,135.727 57.262 C 134.954 57.470,133.883 58.047,133.346 58.545 C 132.809 59.042,132.165 59.450,131.914 59.450 C 131.664 59.450,130.652 60.005,129.666 60.683 C 128.680 61.361,127.520 62.028,127.090 62.165 C 126.659 62.301,126.216 62.649,126.105 62.938 C 125.994 63.227,125.304 63.714,124.570 64.020 C 123.837 64.326,122.744 64.992,122.141 65.500 C 121.538 66.007,120.849 66.422,120.609 66.422 C 120.370 66.422,119.864 66.835,119.485 67.339 C 119.106 67.844,118.597 68.257,118.354 68.257 C 118.110 68.257,117.330 68.794,116.620 69.450 C 114.856 71.081,112.641 72.821,111.676 73.335 C 111.236 73.569,110.776 74.075,110.654 74.459 C 110.532 74.842,110.054 75.251,109.591 75.368 C 109.128 75.484,108.560 75.996,108.328 76.505 C 108.096 77.014,107.659 77.431,107.357 77.431 C 107.055 77.431,106.552 77.927,106.239 78.532 C 105.925 79.138,105.463 79.633,105.210 79.633 C 104.957 79.633,104.316 80.087,103.786 80.642 C 102.543 81.943,102.092 82.391,100.642 83.771 C 99.986 84.395,99.450 85.087,99.450 85.310 C 99.450 85.532,98.954 86.006,98.349 86.364 C 97.743 86.721,97.248 87.247,97.248 87.531 C 97.248 87.815,96.926 88.220,96.533 88.430 C 96.140 88.640,95.526 89.307,95.169 89.911 C 94.813 90.515,94.320 91.009,94.074 91.009 C 93.828 91.009,93.524 91.335,93.398 91.734 C 93.271 92.132,92.776 92.766,92.296 93.143 C 91.817 93.520,91.074 94.501,90.646 95.323 C 90.217 96.146,89.634 96.908,89.349 97.017 C 89.064 97.126,88.586 97.801,88.287 98.516 C 87.988 99.231,87.574 99.817,87.366 99.817 C 87.158 99.817,86.671 100.436,86.285 101.193 C 85.899 101.950,85.244 102.875,84.830 103.249 C 84.417 103.623,83.976 104.394,83.852 104.962 C 83.727 105.529,83.388 106.085,83.097 106.196 C 82.807 106.307,82.166 107.312,81.672 108.429 C 81.178 109.545,80.620 110.459,80.432 110.459 C 80.243 110.459,79.877 110.995,79.618 111.651 C 79.359 112.307,78.864 113.174,78.519 113.578 C 78.173 113.982,77.613 115.166,77.274 116.210 C 76.934 117.254,76.419 118.306,76.128 118.547 C 75.838 118.789,75.406 119.668,75.170 120.502 C 74.933 121.336,74.374 122.431,73.928 122.936 C 73.482 123.440,73.005 124.478,72.870 125.241 C 72.734 126.004,72.227 127.212,71.743 127.924 C 71.260 128.637,70.758 129.995,70.628 130.941 C 70.499 131.887,70.075 133.111,69.687 133.661 C 69.299 134.211,68.740 135.924,68.445 137.467 C 68.148 139.020,67.657 140.458,67.346 140.687 C 67.021 140.926,66.564 142.342,66.263 144.037 C 65.977 145.651,65.393 147.754,64.966 148.710 C 64.373 150.039,64.105 151.723,63.825 155.866 C 63.625 158.846,63.293 161.780,63.089 162.385 C 61.687 166.549,61.690 198.627,63.094 202.319 C 63.303 202.869,63.572 205.173,63.691 207.439 C 63.938 212.119,64.449 215.222,65.154 216.316 C 65.419 216.727,65.898 218.458,66.218 220.161 C 66.538 221.863,67.049 223.532,67.353 223.868 C 67.657 224.204,68.135 225.681,68.415 227.150 C 68.695 228.619,69.269 230.288,69.691 230.859 C 70.113 231.430,70.460 232.193,70.461 232.554 C 70.464 233.728,71.206 235.924,71.800 236.518 C 72.118 236.837,72.534 237.788,72.724 238.633 C 72.914 239.478,73.451 240.669,73.917 241.281 C 74.384 241.892,74.881 242.920,75.023 243.564 C 75.164 244.209,75.593 245.133,75.974 245.619 C 76.356 246.104,77.017 247.433,77.443 248.572 C 77.869 249.711,78.353 250.642,78.519 250.642 C 78.684 250.642,79.097 251.337,79.437 252.187 C 79.777 253.036,80.344 253.933,80.696 254.180 C 81.048 254.427,81.529 255.269,81.763 256.052 C 81.998 256.835,82.605 257.866,83.113 258.343 C 83.621 258.820,84.037 259.500,84.037 259.854 C 84.037 260.208,84.415 260.798,84.876 261.166 C 85.338 261.534,85.928 262.352,86.188 262.985 C 86.447 263.617,87.060 264.483,87.550 264.909 C 88.040 265.335,88.440 265.923,88.440 266.215 C 88.440 266.508,88.782 266.987,89.199 267.279 C 89.616 267.571,90.236 268.322,90.575 268.948 C 91.137 269.984,93.298 272.552,96.422 275.899 C 97.078 276.602,97.615 277.320,97.615 277.495 C 97.615 277.671,98.031 278.004,98.541 278.236 C 99.050 278.468,99.558 279.022,99.670 279.466 C 99.782 279.911,100.273 280.457,100.762 280.680 C 101.251 280.903,101.651 281.333,101.651 281.635 C 101.651 281.937,102.106 282.477,102.661 282.834 C 103.216 283.191,103.963 283.845,104.321 284.288 C 104.680 284.732,105.299 285.198,105.698 285.324 C 106.096 285.451,106.422 285.798,106.422 286.097 C 106.422 286.395,106.918 286.921,107.524 287.265 C 108.130 287.609,108.719 288.179,108.833 288.532 C 108.947 288.885,109.199 289.174,109.392 289.174 C 109.586 289.174,110.277 289.654,110.927 290.241 C 114.411 293.381,115.489 294.240,116.239 294.472 C 116.693 294.613,117.064 294.946,117.064 295.212 C 117.064 295.478,117.637 295.968,118.337 296.300 C 119.037 296.632,119.739 297.124,119.897 297.393 C 120.054 297.662,120.761 298.176,121.468 298.534 C 122.174 298.893,123.219 299.575,123.790 300.052 C 124.360 300.528,124.999 300.917,125.209 300.917 C 125.419 300.917,126.163 301.420,126.862 302.034 C 127.562 302.647,128.605 303.244,129.181 303.359 C 129.757 303.474,130.313 303.790,130.417 304.060 C 130.520 304.330,131.427 304.905,132.432 305.337 C 133.437 305.769,134.339 306.330,134.436 306.582 C 134.533 306.835,135.370 307.254,136.297 307.514 C 137.223 307.773,137.982 308.125,137.982 308.295 C 137.982 308.715,139.739 309.570,141.150 309.838 C 141.783 309.958,142.900 310.463,143.632 310.960 C 144.365 311.457,145.608 311.972,146.394 312.105 C 147.181 312.238,148.105 312.657,148.449 313.037 C 148.792 313.416,149.953 313.909,151.028 314.132 C 152.103 314.356,153.388 314.857,153.884 315.247 C 154.400 315.653,155.820 316.102,157.213 316.299 C 158.549 316.488,160.218 316.999,160.922 317.434 C 161.625 317.869,163.548 318.460,165.193 318.747 C 166.839 319.034,168.378 319.429,168.613 319.624 C 169.278 320.176,172.265 320.705,176.881 321.090 C 179.202 321.283,182.174 321.718,183.486 322.056 C 185.427 322.555,188.297 322.699,198.899 322.829 C 212.194 322.991,212.412 322.978,220.917 321.489 C 222.028 321.294,224.808 320.967,227.097 320.761 C 229.716 320.525,231.823 320.126,232.785 319.683 C 233.625 319.297,235.409 318.815,236.750 318.612 C 238.126 318.405,239.645 317.913,240.237 317.484 C 240.813 317.066,242.354 316.556,243.662 316.350 C 244.970 316.145,246.462 315.665,246.978 315.284 C 247.494 314.902,248.762 314.408,249.797 314.187 C 250.832 313.965,252.294 313.365,253.047 312.855 C 253.799 312.344,254.820 311.927,255.316 311.927 C 256.247 311.927,258.349 310.870,258.349 310.402 C 258.349 310.256,259.087 310.026,259.990 309.891 C 260.892 309.755,262.017 309.286,262.489 308.849 C 262.962 308.411,264.050 307.821,264.908 307.538 C 265.765 307.255,266.625 306.729,266.817 306.369 C 267.010 306.009,267.867 305.516,268.722 305.273 C 269.576 305.031,270.652 304.449,271.112 303.980 C 271.572 303.511,272.350 303.027,272.842 302.904 C 273.333 302.780,273.827 302.391,273.939 302.038 C 274.051 301.685,274.768 301.209,275.534 300.980 C 276.299 300.750,277.315 300.147,277.792 299.639 C 278.270 299.131,278.886 298.716,279.163 298.716 C 279.440 298.716,280.066 298.316,280.555 297.827 C 281.044 297.338,281.753 296.840,282.130 296.720 C 282.507 296.601,283.461 295.926,284.252 295.221 C 285.042 294.517,285.977 293.848,286.330 293.734 C 286.683 293.621,286.972 293.369,286.972 293.174 C 286.972 292.979,287.550 292.478,288.257 292.061 C 288.963 291.645,289.541 291.068,289.541 290.780 C 289.541 290.493,289.945 290.103,290.440 289.916 C 290.934 289.728,291.613 289.154,291.950 288.640 C 292.286 288.127,292.721 287.706,292.915 287.706 C 293.386 287.706,296.514 284.564,296.514 284.090 C 296.514 283.886,296.816 283.623,297.185 283.506 C 298.292 283.155,304.947 276.105,305.432 274.771 C 305.560 274.417,305.882 274.128,306.148 274.128 C 306.413 274.128,306.923 273.633,307.281 273.028 C 307.639 272.422,308.083 271.927,308.268 271.927 C 308.453 271.927,308.846 271.460,309.141 270.890 C 309.436 270.320,310.183 269.312,310.802 268.649 C 311.420 267.987,311.927 267.227,311.927 266.960 C 311.927 266.694,312.330 266.158,312.823 265.770 C 313.316 265.382,313.828 264.633,313.961 264.105 C 314.093 263.577,314.507 263.049,314.880 262.930 C 315.253 262.812,315.661 262.392,315.786 261.998 C 315.912 261.603,316.418 260.801,316.911 260.214 C 317.405 259.628,318.042 258.597,318.327 257.923 C 318.613 257.249,319.180 256.417,319.587 256.075 C 319.994 255.733,320.507 254.786,320.727 253.970 C 320.947 253.155,321.516 252.067,321.993 251.553 C 322.469 251.039,322.966 250.046,323.097 249.346 C 323.229 248.646,323.503 248.073,323.707 248.073 C 323.911 248.073,324.419 247.289,324.835 246.330 C 325.252 245.372,325.885 244.257,326.242 243.853 C 326.600 243.450,327.075 242.246,327.299 241.178 C 327.522 240.111,328.029 238.889,328.425 238.464 C 328.821 238.039,329.252 236.980,329.382 236.112 C 329.512 235.243,330.008 234.006,330.483 233.362 C 330.958 232.718,331.550 231.265,331.798 230.132 C 332.047 229.000,332.539 227.661,332.891 227.156 C 333.244 226.651,333.723 224.917,333.956 223.303 C 334.194 221.650,334.711 219.826,335.138 219.129 C 335.686 218.234,335.982 216.878,336.205 214.240 C 336.396 211.979,336.708 210.396,337.024 210.079 C 337.784 209.319,338.278 206.581,338.543 201.651 C 338.673 199.229,338.912 197.083,339.075 196.881 C 340.753 194.796,340.757 170.867,339.080 167.156 C 338.897 166.752,338.597 164.166,338.413 161.409 C 338.157 157.561,337.900 156.025,337.307 154.802 C 336.852 153.861,336.443 152.082,336.308 150.457 C 336.059 147.435,335.566 145.434,334.863 144.587 C 334.612 144.284,334.199 142.670,333.946 141.000 C 333.686 139.288,333.205 137.606,332.843 137.146 C 332.489 136.696,331.998 135.338,331.752 134.128 C 331.493 132.853,330.953 131.540,330.469 131.009 C 330.005 130.499,329.551 129.424,329.447 128.588 C 329.344 127.762,328.845 126.440,328.338 125.653 C 327.831 124.865,327.303 123.567,327.164 122.769 C 327.025 121.970,326.512 120.843,326.024 120.263 C 325.537 119.684,325.138 118.998,325.138 118.739 C 325.138 118.480,324.702 117.625,324.169 116.841 C 323.637 116.056,323.032 114.918,322.826 114.312 C 322.620 113.707,322.065 112.744,321.593 112.174 C 321.120 111.603,320.734 110.831,320.734 110.459 C 320.734 110.086,320.319 109.288,319.811 108.685 C 319.304 108.082,318.658 107.037,318.376 106.363 C 318.093 105.689,317.435 104.737,316.913 104.248 C 316.391 103.759,315.963 103.143,315.963 102.880 C 315.963 102.617,315.550 102.132,315.046 101.801 C 314.541 101.470,314.128 100.901,314.128 100.536 C 314.128 100.172,313.655 99.400,313.077 98.821 C 312.499 98.243,311.911 97.409,311.771 96.968 C 311.631 96.527,311.154 95.873,310.712 95.514 C 310.270 95.156,309.675 94.411,309.391 93.859 C 309.106 93.308,308.569 92.760,308.198 92.642 C 307.827 92.524,307.523 92.105,307.523 91.711 C 307.523 91.302,307.128 90.814,306.606 90.575 C 306.101 90.346,305.688 90.040,305.688 89.896 C 305.688 89.449,302.292 85.408,300.366 83.565 C 293.581 77.068,291.133 74.835,290.615 74.670 C 290.291 74.567,289.806 74.073,289.538 73.572 C 289.270 73.071,288.840 72.661,288.583 72.661 C 288.325 72.661,287.899 72.356,287.635 71.985 C 287.372 71.613,286.743 71.090,286.239 70.823 C 285.734 70.555,284.880 69.910,284.340 69.389 C 282.536 67.645,280.882 66.473,279.865 66.218 C 279.310 66.079,278.600 65.572,278.285 65.093 C 277.971 64.613,277.498 64.220,277.234 64.220 C 276.970 64.220,276.260 63.805,275.657 63.298 C 275.054 62.790,274.010 62.142,273.336 61.856 C 272.662 61.571,271.830 61.004,271.488 60.596 C 271.146 60.189,270.188 59.673,269.359 59.450 C 268.530 59.227,267.765 58.818,267.659 58.541 C 267.553 58.265,266.841 57.789,266.077 57.483 C 265.313 57.177,264.064 56.504,263.302 55.986 C 262.540 55.469,261.549 55.046,261.101 55.046 C 260.653 55.046,259.665 54.624,258.905 54.109 C 258.146 53.594,256.789 53.035,255.891 52.867 C 254.957 52.692,254.043 52.256,253.758 51.849 C 253.457 51.420,252.416 50.948,251.144 50.663 C 249.981 50.403,248.608 49.885,248.093 49.512 C 247.578 49.139,246.131 48.673,244.879 48.477 C 243.626 48.280,242.140 47.783,241.576 47.373 C 240.977 46.937,239.428 46.455,237.853 46.215 C 236.370 45.989,234.572 45.459,233.857 45.037 C 231.767 43.804,189.515 43.111,173.028 44.041 M230.092 45.791 C 231.202 46.251,233.341 46.787,234.845 46.984 C 236.360 47.181,238.324 47.725,239.249 48.203 C 240.166 48.678,241.661 49.180,242.569 49.319 C 243.477 49.457,244.978 49.964,245.903 50.446 C 246.829 50.927,248.219 51.439,248.993 51.584 C 249.767 51.730,251.298 52.320,252.394 52.897 C 253.490 53.473,254.662 53.945,254.998 53.945 C 255.334 53.945,256.184 54.329,256.887 54.799 C 257.590 55.269,258.941 55.866,259.890 56.126 C 260.838 56.386,261.893 56.907,262.234 57.283 C 262.574 57.659,263.398 58.069,264.063 58.194 C 264.729 58.319,265.557 58.735,265.903 59.117 C 266.250 59.500,267.375 60.235,268.404 60.751 C 271.422 62.262,272.688 63.017,273.530 63.809 C 273.966 64.218,274.939 64.810,275.693 65.125 C 276.447 65.440,277.064 65.849,277.064 66.033 C 277.064 66.218,277.725 66.660,278.532 67.017 C 279.339 67.373,280.000 67.783,280.000 67.929 C 280.000 68.075,280.784 68.707,281.743 69.333 C 284.507 71.139,285.911 72.204,288.073 74.133 C 289.183 75.123,290.648 76.394,291.328 76.957 C 297.032 81.681,306.816 92.101,310.209 97.064 C 313.168 101.393,313.713 102.175,314.296 102.936 C 314.605 103.339,315.545 104.743,316.385 106.055 C 317.224 107.367,318.184 108.853,318.517 109.358 C 318.850 109.862,319.351 110.853,319.629 111.560 C 319.908 112.266,320.518 113.419,320.985 114.122 C 321.452 114.825,321.835 115.584,321.835 115.810 C 321.835 116.036,322.311 116.877,322.893 117.681 C 323.475 118.484,324.061 119.643,324.196 120.255 C 324.330 120.868,324.772 121.725,325.178 122.161 C 325.584 122.597,326.161 123.894,326.461 125.044 C 326.760 126.194,327.230 127.387,327.505 127.696 C 327.780 128.004,328.199 129.000,328.436 129.908 C 328.673 130.817,329.270 132.255,329.761 133.104 C 330.253 133.954,330.820 135.517,331.021 136.578 C 331.222 137.638,331.711 139.176,332.108 139.995 C 332.504 140.813,333.009 142.784,333.230 144.374 C 333.451 145.964,333.851 147.612,334.119 148.036 C 334.700 148.956,335.413 152.204,335.413 153.928 C 335.413 154.605,335.826 156.372,336.331 157.855 C 337.278 160.633,337.271 160.565,338.226 178.655 C 338.636 186.422,337.509 202.402,336.228 206.972 C 335.804 208.486,335.264 211.046,335.029 212.661 C 334.794 214.275,334.376 216.033,334.100 216.567 C 333.825 217.101,333.502 218.257,333.384 219.136 C 333.065 221.510,332.413 223.937,331.862 224.799 C 331.594 225.218,331.200 226.540,330.988 227.735 C 330.775 228.930,330.312 230.321,329.959 230.826 C 329.201 231.909,328.577 233.484,328.251 235.138 C 328.121 235.794,327.883 236.330,327.722 236.330 C 327.375 236.330,326.798 237.729,326.230 239.951 C 326.005 240.833,325.517 241.879,325.147 242.277 C 324.776 242.674,324.371 243.544,324.246 244.211 C 324.121 244.877,323.635 245.812,323.166 246.289 C 322.697 246.766,322.194 247.641,322.049 248.234 C 321.905 248.828,321.425 249.819,320.985 250.436 C 320.544 251.054,319.805 252.303,319.343 253.211 C 317.331 257.167,316.937 257.818,316.286 258.274 C 315.907 258.540,315.595 258.954,315.593 259.195 C 315.591 259.436,315.013 260.358,314.308 261.244 C 313.604 262.131,313.028 263.014,313.028 263.207 C 313.028 263.401,312.573 264.025,312.018 264.595 C 310.536 266.117,309.176 267.914,308.488 269.255 C 308.155 269.905,307.554 270.613,307.152 270.828 C 306.751 271.043,306.422 271.407,306.422 271.638 C 306.422 271.869,305.885 272.584,305.229 273.227 C 304.573 273.870,303.128 275.441,302.018 276.717 C 300.908 277.994,299.174 279.833,298.165 280.804 C 293.743 285.060,293.211 285.606,293.211 285.889 C 293.211 286.054,292.922 286.281,292.569 286.394 C 292.216 286.507,291.015 287.467,289.900 288.529 C 288.091 290.252,283.443 293.976,281.336 295.390 C 280.904 295.680,280.138 296.280,279.633 296.725 C 279.128 297.169,278.385 297.632,277.982 297.755 C 277.578 297.877,276.768 298.391,276.181 298.897 C 275.595 299.403,274.923 299.817,274.688 299.817 C 274.453 299.817,273.706 300.312,273.028 300.917 C 272.349 301.523,271.643 302.018,271.458 302.018 C 271.274 302.018,270.615 302.390,269.994 302.844 C 268.867 303.669,266.598 304.925,263.486 306.448 C 262.578 306.892,261.422 307.543,260.917 307.894 C 260.413 308.245,259.428 308.657,258.730 308.808 C 258.031 308.959,256.875 309.460,256.161 309.921 C 255.447 310.382,254.284 310.872,253.578 311.010 C 252.872 311.149,251.716 311.641,251.009 312.105 C 250.303 312.568,248.817 313.149,247.706 313.396 C 246.596 313.642,245.280 314.101,244.781 314.415 C 244.282 314.729,242.828 315.205,241.550 315.473 C 240.273 315.741,238.369 316.357,237.320 316.843 C 236.269 317.329,234.282 317.839,232.896 317.979 C 231.512 318.118,229.447 318.560,228.309 318.961 C 221.307 321.427,180.280 321.424,173.002 318.957 C 171.778 318.542,169.501 318.044,167.944 317.851 C 166.387 317.657,164.673 317.211,164.135 316.859 C 163.597 316.506,161.777 315.911,160.089 315.535 C 158.402 315.158,156.659 314.626,156.217 314.352 C 155.775 314.078,154.600 313.658,153.608 313.419 C 152.615 313.181,151.114 312.582,150.273 312.089 C 149.431 311.596,148.492 311.193,148.185 311.193 C 147.877 311.193,146.721 310.710,145.615 310.119 C 144.509 309.529,143.010 308.935,142.285 308.799 C 141.559 308.663,140.681 308.237,140.333 307.852 C 139.985 307.467,139.029 306.972,138.209 306.751 C 137.388 306.530,136.246 305.953,135.670 305.468 C 135.094 304.984,134.466 304.587,134.275 304.587 C 134.084 304.587,133.087 304.009,132.060 303.303 C 131.033 302.596,129.993 302.018,129.750 302.018 C 129.506 302.018,128.752 301.523,128.073 300.917 C 127.395 300.312,126.603 299.817,126.313 299.817 C 126.022 299.817,125.251 299.362,124.598 298.807 C 123.473 297.851,122.329 297.096,119.930 295.728 C 119.350 295.397,118.495 294.737,118.030 294.261 C 117.565 293.784,116.632 292.982,115.955 292.477 C 115.279 291.972,114.258 291.115,113.686 290.571 C 113.114 290.028,112.195 289.229,111.644 288.796 C 107.785 285.765,100.691 278.740,97.079 274.372 C 96.280 273.406,95.124 272.068,94.510 271.400 C 92.137 268.817,91.437 267.924,91.202 267.187 C 91.069 266.766,90.810 266.422,90.627 266.422 C 90.444 266.422,90.021 265.893,89.687 265.247 C 89.352 264.601,88.838 263.832,88.544 263.537 C 88.249 263.243,87.617 262.382,87.138 261.624 C 86.660 260.865,86.097 260.139,85.888 260.010 C 85.678 259.881,85.156 258.958,84.727 257.961 C 84.297 256.963,83.816 256.147,83.657 256.147 C 83.498 256.147,83.008 255.404,82.569 254.495 C 82.129 253.587,81.641 252.844,81.485 252.844 C 81.329 252.844,80.922 252.114,80.581 251.222 C 80.240 250.329,79.731 249.408,79.450 249.175 C 79.169 248.942,78.662 247.897,78.323 246.852 C 77.984 245.808,77.417 244.624,77.063 244.220 C 76.710 243.817,76.215 242.826,75.963 242.018 C 75.712 241.211,75.215 240.220,74.859 239.817 C 74.503 239.413,73.930 238.092,73.587 236.881 C 73.243 235.670,72.730 234.420,72.447 234.103 C 72.164 233.786,71.765 232.641,71.560 231.559 C 71.354 230.477,70.867 229.050,70.477 228.389 C 70.087 227.728,69.571 226.148,69.330 224.878 C 69.090 223.608,68.589 222.061,68.218 221.441 C 67.846 220.820,67.355 219.086,67.126 217.587 C 66.896 216.089,66.392 213.970,66.006 212.879 C 63.529 205.892,63.435 157.006,65.888 152.261 C 66.180 151.697,66.587 150.047,66.793 148.594 C 67.298 145.037,67.507 144.227,68.255 142.936 C 68.606 142.330,69.081 140.844,69.311 139.633 C 69.540 138.422,70.140 136.619,70.644 135.626 C 71.148 134.633,71.560 133.393,71.560 132.871 C 71.560 132.348,71.955 131.177,72.439 130.268 C 72.923 129.360,73.517 127.879,73.760 126.979 C 74.002 126.078,74.597 124.870,75.082 124.294 C 75.567 123.718,75.963 122.903,75.963 122.484 C 75.963 122.064,76.359 121.202,76.843 120.567 C 77.327 119.933,77.881 118.844,78.075 118.147 C 78.268 117.451,78.946 116.064,79.580 115.066 C 80.215 114.068,80.734 113.056,80.734 112.817 C 80.734 112.579,80.995 112.167,81.313 111.903 C 81.850 111.458,82.746 109.958,84.590 106.421 C 84.995 105.643,85.678 104.624,86.107 104.155 C 86.536 103.686,87.137 102.807,87.442 102.201 C 87.748 101.595,88.345 100.785,88.770 100.401 C 89.194 100.017,89.541 99.490,89.541 99.230 C 89.541 98.970,89.833 98.541,90.190 98.278 C 90.547 98.014,91.154 97.303,91.540 96.697 C 92.448 95.271,95.997 91.036,98.546 88.336 C 99.649 87.168,100.550 86.082,100.550 85.921 C 100.550 85.760,100.945 85.417,101.427 85.159 C 101.910 84.901,102.478 84.310,102.689 83.845 C 102.901 83.380,103.388 82.900,103.772 82.778 C 104.156 82.656,104.689 82.147,104.957 81.645 C 105.226 81.144,105.609 80.734,105.809 80.734 C 106.008 80.734,107.095 79.840,108.224 78.747 C 111.480 75.593,112.508 74.680,113.629 73.946 C 114.207 73.568,115.146 72.835,115.716 72.317 C 116.287 71.800,117.138 71.028,117.608 70.602 C 118.078 70.176,119.056 69.461,119.782 69.012 C 120.507 68.564,121.101 68.045,121.101 67.860 C 121.101 67.675,121.307 67.523,121.560 67.522 C 122.037 67.521,125.938 65.064,127.076 64.048 C 127.435 63.726,128.343 63.183,129.094 62.841 C 129.845 62.498,130.926 61.843,131.496 61.384 C 132.067 60.926,132.756 60.550,133.028 60.550 C 133.299 60.550,134.017 60.133,134.623 59.624 C 135.229 59.114,136.274 58.508,136.945 58.277 C 137.616 58.046,138.743 57.483,139.450 57.026 C 140.156 56.570,141.339 56.087,142.078 55.953 C 142.818 55.819,143.753 55.402,144.157 55.026 C 144.561 54.650,145.360 54.233,145.932 54.101 C 146.504 53.969,147.798 53.406,148.807 52.851 C 149.817 52.295,151.220 51.718,151.927 51.567 C 152.633 51.416,154.037 50.913,155.046 50.449 C 156.055 49.985,157.872 49.409,159.083 49.168 C 160.294 48.928,161.558 48.489,161.892 48.193 C 162.227 47.897,163.960 47.411,165.745 47.113 C 167.530 46.815,169.651 46.300,170.459 45.969 C 172.947 44.949,175.513 44.863,202.202 44.909 L 228.073 44.954 230.092 45.791 M187.156 86.955 C 186.248 87.094,184.761 87.468,183.853 87.786 C 182.945 88.105,181.046 88.484,179.633 88.628 C 178.166 88.777,176.326 89.254,175.342 89.740 C 174.395 90.208,172.826 90.708,171.856 90.851 C 170.886 90.993,169.349 91.491,168.440 91.957 C 167.532 92.423,165.963 93.002,164.954 93.243 C 163.945 93.484,162.872 93.894,162.569 94.154 C 162.266 94.413,161.193 94.903,160.183 95.243 C 159.174 95.582,158.059 96.166,157.705 96.540 C 157.351 96.914,156.432 97.390,155.663 97.597 C 154.893 97.804,153.875 98.388,153.398 98.895 C 152.922 99.402,152.336 99.817,152.097 99.817 C 151.857 99.817,151.037 100.312,150.275 100.917 C 149.513 101.523,148.689 102.018,148.443 102.018 C 148.198 102.018,147.563 102.421,147.032 102.913 C 146.501 103.405,145.674 104.024,145.195 104.289 C 143.204 105.389,138.597 109.229,135.100 112.704 C 132.077 115.708,126.802 121.516,126.365 122.319 C 126.132 122.748,125.592 123.517,125.164 124.027 C 122.903 126.724,122.202 127.650,122.201 127.938 C 122.200 128.252,119.953 131.790,118.619 133.578 C 118.243 134.083,117.712 135.073,117.439 135.780 C 117.166 136.486,116.722 137.326,116.452 137.645 C 116.182 137.965,115.686 139.038,115.349 140.030 C 115.013 141.023,114.446 142.248,114.089 142.752 C 113.732 143.257,113.249 144.413,113.016 145.321 C 112.783 146.229,112.387 147.220,112.136 147.523 C 111.544 148.238,110.940 149.922,110.651 151.662 C 110.525 152.425,110.109 153.581,109.727 154.231 C 109.345 154.881,108.864 156.760,108.659 158.409 C 108.453 160.057,107.946 162.369,107.532 163.547 C 105.733 168.660,105.705 195.650,107.493 200.837 C 107.896 202.003,108.408 204.315,108.633 205.974 C 108.857 207.633,109.351 209.523,109.731 210.173 C 110.111 210.823,110.525 211.979,110.651 212.742 C 110.937 214.466,111.541 216.158,112.128 216.881 C 112.374 217.183,112.840 218.359,113.165 219.493 C 113.489 220.627,113.983 221.745,114.262 221.977 C 114.542 222.209,114.981 223.181,115.238 224.135 C 115.495 225.090,115.985 226.202,116.326 226.606 C 116.667 227.009,117.168 227.917,117.440 228.624 C 117.712 229.330,118.244 230.321,118.621 230.826 C 120.180 232.909,121.128 234.383,121.691 235.596 C 122.019 236.303,122.760 237.459,123.337 238.165 C 125.113 240.339,125.828 241.241,126.679 242.385 C 127.129 242.991,127.590 243.569,127.704 243.670 C 127.817 243.771,129.302 245.422,131.003 247.339 C 134.623 251.419,134.050 250.846,137.982 254.313 C 139.697 255.826,141.183 257.168,141.284 257.295 C 141.633 257.733,144.865 260.110,145.734 260.567 C 146.213 260.819,147.003 261.417,147.489 261.896 C 147.974 262.375,148.796 262.874,149.314 263.004 C 149.831 263.134,150.507 263.546,150.816 263.920 C 151.417 264.651,152.755 265.447,155.963 266.986 C 157.073 267.518,158.229 268.175,158.532 268.446 C 158.835 268.716,159.908 269.215,160.917 269.553 C 161.927 269.891,163.002 270.389,163.307 270.659 C 163.613 270.928,164.686 271.340,165.693 271.573 C 166.699 271.806,168.018 272.247,168.624 272.553 C 170.150 273.324,172.846 274.120,173.948 274.124 C 174.454 274.127,175.610 274.521,176.517 275.000 C 177.543 275.543,179.342 276.020,181.284 276.263 C 183.000 276.478,186.055 277.006,188.073 277.437 C 193.274 278.547,210.676 278.373,215.046 277.167 C 216.560 276.749,219.037 276.296,220.550 276.160 C 222.214 276.010,223.784 275.631,224.519 275.202 C 225.188 274.811,226.967 274.238,228.471 273.927 C 229.975 273.616,231.739 273.055,232.392 272.679 C 233.044 272.304,234.275 271.884,235.127 271.748 C 235.979 271.611,237.052 271.203,237.512 270.841 C 237.972 270.479,239.141 269.914,240.109 269.586 C 241.076 269.257,242.220 268.661,242.650 268.260 C 243.080 267.860,243.966 267.432,244.620 267.309 C 245.274 267.186,246.182 266.689,246.638 266.204 C 247.094 265.718,247.657 265.321,247.889 265.321 C 248.121 265.321,249.124 264.743,250.118 264.037 C 251.111 263.330,252.106 262.752,252.327 262.752 C 252.549 262.752,253.042 262.408,253.422 261.988 C 253.802 261.568,254.612 261.012,255.222 260.752 C 255.832 260.493,256.774 259.887,257.315 259.406 C 258.537 258.322,260.640 256.540,262.569 254.953 C 267.253 251.101,278.165 238.711,278.165 237.245 C 278.165 237.007,278.513 236.496,278.938 236.112 C 279.363 235.727,280.045 234.752,280.454 233.945 C 280.862 233.138,281.409 232.352,281.669 232.200 C 281.930 232.048,282.426 231.181,282.772 230.274 C 283.119 229.366,283.532 228.624,283.689 228.624 C 283.847 228.624,284.269 227.839,284.628 226.881 C 284.986 225.922,285.642 224.642,286.086 224.037 C 286.529 223.431,287.010 222.381,287.154 221.704 C 287.297 221.026,287.795 219.911,288.260 219.226 C 288.725 218.541,289.219 217.158,289.357 216.153 C 289.495 215.148,289.916 213.934,290.293 213.455 C 290.670 212.976,291.158 211.446,291.378 210.054 C 291.598 208.662,292.089 206.862,292.470 206.055 C 294.256 202.274,293.582 198.921,291.457 201.009 C 291.097 201.362,290.189 201.938,289.438 202.288 C 288.688 202.638,288.073 203.067,288.073 203.241 C 288.073 203.416,287.372 203.862,286.514 204.233 C 285.656 204.605,284.689 205.129,284.365 205.399 C 284.040 205.669,282.808 206.230,281.626 206.646 C 280.444 207.061,279.032 207.717,278.489 208.104 C 277.946 208.491,277.183 208.807,276.795 208.807 C 276.406 208.807,275.275 209.228,274.282 209.743 C 273.289 210.258,271.009 211.007,269.215 211.409 C 267.421 211.810,265.623 212.316,265.218 212.532 C 261.936 214.289,236.666 214.117,233.191 212.314 C 232.635 212.026,231.008 211.584,229.576 211.333 C 228.144 211.083,226.394 210.519,225.688 210.082 C 224.982 209.644,223.743 209.166,222.936 209.020 C 222.128 208.873,220.807 208.374,220.000 207.912 C 219.193 207.450,217.872 206.864,217.064 206.610 C 216.257 206.356,215.266 205.859,214.862 205.505 C 214.459 205.151,213.510 204.663,212.755 204.421 C 212.000 204.180,211.257 203.786,211.104 203.547 C 210.823 203.107,208.647 201.545,206.394 200.165 C 203.949 198.667,195.968 191.134,193.802 188.279 C 193.275 187.584,192.514 186.660,192.110 186.226 C 191.706 185.792,190.798 184.578,190.092 183.529 C 189.385 182.479,188.353 181.096,187.798 180.454 C 187.243 179.811,186.786 179.116,186.782 178.909 C 186.779 178.702,186.283 177.805,185.681 176.917 C 185.080 176.029,184.587 175.035,184.587 174.709 C 184.587 174.382,184.183 173.520,183.689 172.793 C 183.194 172.066,182.672 170.995,182.528 170.414 C 182.384 169.833,181.891 168.780,181.433 168.073 C 180.974 167.367,180.326 165.716,179.992 164.404 C 179.657 163.092,179.224 161.824,179.027 161.587 C 178.831 161.350,178.265 158.873,177.768 156.082 C 177.272 153.292,176.714 150.266,176.528 149.358 C 176.089 147.211,176.090 132.417,176.529 130.275 C 176.715 129.367,177.254 126.446,177.727 123.785 C 178.200 121.123,178.765 118.729,178.982 118.464 C 179.199 118.199,179.659 116.849,180.004 115.465 C 180.349 114.080,181.109 112.040,181.692 110.932 C 182.275 109.823,182.752 108.636,182.752 108.293 C 182.752 107.950,182.907 107.513,183.096 107.321 C 183.285 107.129,183.956 105.982,184.588 104.771 C 186.604 100.910,187.562 99.286,188.286 98.508 C 188.674 98.092,188.991 97.572,188.991 97.354 C 188.991 97.135,189.394 96.485,189.888 95.909 C 197.263 87.300,197.313 87.223,195.872 86.837 C 194.813 86.553,189.304 86.628,187.156 86.955 M194.862 88.055 C 194.862 88.247,194.656 88.536,194.404 88.697 C 194.151 88.859,193.649 89.569,193.288 90.275 C 192.927 90.982,191.730 92.540,190.628 93.737 C 189.525 94.935,188.624 96.082,188.624 96.286 C 188.624 96.490,188.243 97.079,187.778 97.595 C 186.792 98.687,184.220 102.883,184.220 103.399 C 184.220 103.592,183.815 104.348,183.319 105.078 C 182.824 105.808,182.170 107.241,181.867 108.263 C 181.564 109.284,180.997 110.525,180.608 111.020 C 180.218 111.515,179.783 112.541,179.642 113.300 C 179.500 114.058,178.986 115.551,178.499 116.616 C 178.013 117.682,177.611 119.003,177.607 119.552 C 177.603 120.101,177.370 121.541,177.090 122.752 C 175.291 130.522,175.343 129.923,175.484 141.273 C 175.600 150.517,175.712 152.319,176.249 153.529 C 176.595 154.309,177.068 156.456,177.299 158.299 C 177.564 160.404,178.029 162.225,178.550 163.195 C 179.006 164.043,179.496 165.447,179.637 166.314 C 179.779 167.181,180.253 168.385,180.690 168.991 C 181.126 169.596,181.710 170.752,181.987 171.560 C 182.263 172.367,182.797 173.421,183.172 173.903 C 183.546 174.384,183.853 175.050,183.853 175.383 C 183.853 176.688,191.426 187.523,192.339 187.523 C 192.516 187.523,192.661 187.765,192.661 188.061 C 192.661 188.357,193.197 189.149,193.853 189.820 C 194.509 190.492,195.706 191.782,196.514 192.687 C 197.321 193.592,198.642 194.875,199.450 195.538 C 202.636 198.156,203.323 198.753,204.273 199.725 C 204.815 200.280,205.450 200.734,205.683 200.734 C 205.916 200.734,206.661 201.229,207.339 201.835 C 208.018 202.440,208.792 202.936,209.061 202.936 C 209.329 202.936,209.836 203.284,210.187 203.709 C 210.538 204.134,211.486 204.798,212.294 205.186 C 213.101 205.573,214.174 206.127,214.679 206.417 C 216.631 207.537,220.460 209.166,222.477 209.734 C 223.638 210.060,224.587 210.454,224.587 210.610 C 224.587 210.905,226.321 211.512,228.807 212.087 C 229.615 212.274,231.018 212.702,231.927 213.038 C 232.835 213.375,235.394 213.805,237.615 213.994 C 239.835 214.183,242.949 214.579,244.536 214.875 C 247.825 215.488,250.457 215.537,252.844 215.030 C 253.752 214.837,256.972 214.446,260.000 214.162 C 263.028 213.878,266.248 213.368,267.156 213.028 C 268.064 212.688,269.824 212.201,271.067 211.944 C 272.309 211.688,273.878 211.140,274.553 210.726 C 275.228 210.312,276.716 209.703,277.859 209.373 C 279.003 209.043,280.138 208.533,280.381 208.240 C 280.625 207.946,281.093 207.702,281.421 207.696 C 281.750 207.690,282.761 207.278,283.670 206.780 C 284.578 206.281,285.899 205.610,286.606 205.288 C 287.312 204.966,288.334 204.283,288.877 203.771 C 290.002 202.711,291.009 202.860,291.009 204.087 C 291.009 205.682,290.179 209.736,289.742 210.275 C 289.077 211.095,288.523 212.800,288.252 214.862 C 288.119 215.872,287.696 217.037,287.310 217.453 C 286.925 217.868,286.463 218.994,286.283 219.954 C 286.104 220.915,285.614 222.020,285.194 222.411 C 284.774 222.802,284.263 223.748,284.057 224.513 C 283.851 225.277,283.362 226.247,282.971 226.667 C 282.579 227.087,282.051 228.124,281.798 228.970 C 281.544 229.816,281.060 230.704,280.723 230.943 C 280.385 231.181,279.830 231.872,279.489 232.477 C 279.147 233.083,278.462 234.139,277.966 234.825 C 277.470 235.511,277.064 236.367,277.064 236.727 C 277.064 237.087,276.759 237.479,276.386 237.597 C 276.013 237.715,275.511 238.243,275.271 238.770 C 275.031 239.297,274.446 240.161,273.971 240.690 C 271.385 243.569,270.459 244.711,270.459 245.021 C 270.459 245.211,269.963 245.733,269.358 246.181 C 268.752 246.628,268.257 247.241,268.257 247.543 C 268.257 247.845,267.842 248.249,267.335 248.442 C 266.828 248.635,266.223 249.209,265.992 249.717 C 265.760 250.226,265.341 250.642,265.062 250.642 C 264.782 250.642,264.272 251.137,263.928 251.741 C 263.584 252.345,263.108 252.840,262.871 252.842 C 262.633 252.843,262.138 253.216,261.770 253.672 C 261.402 254.127,260.670 254.776,260.143 255.114 C 259.617 255.452,258.952 255.947,258.666 256.213 C 256.898 257.862,254.288 259.817,253.853 259.817 C 253.573 259.817,252.788 260.312,252.110 260.917 C 251.432 261.523,250.658 262.018,250.389 262.018 C 250.121 262.018,249.383 262.514,248.750 263.119 C 248.116 263.725,247.349 264.220,247.044 264.220 C 246.740 264.220,245.939 264.642,245.263 265.157 C 244.587 265.672,243.498 266.273,242.843 266.492 C 242.188 266.711,241.321 267.184,240.917 267.542 C 240.514 267.901,239.236 268.467,238.078 268.801 C 236.920 269.134,235.846 269.618,235.692 269.875 C 235.539 270.132,234.339 270.547,233.028 270.797 C 231.716 271.046,229.982 271.627,229.174 272.088 C 228.367 272.548,226.719 273.036,225.513 273.173 C 224.306 273.309,222.738 273.765,222.027 274.186 C 221.107 274.730,219.728 275.035,217.248 275.241 C 215.330 275.400,210.811 275.825,207.204 276.186 C 200.895 276.817,200.401 276.817,194.176 276.179 C 190.618 275.815,186.027 275.390,183.975 275.236 C 181.121 275.021,179.996 274.779,179.190 274.205 C 178.543 273.744,177.041 273.303,175.294 273.060 C 173.455 272.804,172.190 272.422,171.713 271.978 C 171.276 271.570,169.872 271.102,168.261 270.826 C 166.714 270.562,165.466 270.153,165.359 269.875 C 165.256 269.607,164.215 269.115,163.045 268.781 C 161.875 268.447,160.587 267.882,160.183 267.525 C 159.780 267.169,158.789 266.654,157.982 266.383 C 157.174 266.111,156.130 265.523,155.661 265.078 C 155.192 264.632,154.292 264.153,153.660 264.014 C 153.028 263.876,152.202 263.370,151.825 262.890 C 151.448 262.411,150.902 262.018,150.612 262.018 C 150.322 262.018,149.567 261.523,148.933 260.917 C 148.299 260.312,147.588 259.817,147.351 259.817 C 147.115 259.817,146.366 259.321,145.688 258.716 C 145.010 258.110,144.296 257.615,144.102 257.615 C 143.700 257.615,143.334 257.278,136.422 250.549 C 133.647 247.847,131.376 245.453,131.376 245.228 C 131.376 245.004,131.044 244.715,130.638 244.586 C 130.232 244.457,129.653 243.873,129.350 243.288 C 129.047 242.702,128.471 242.048,128.070 241.833 C 127.668 241.618,127.339 241.227,127.339 240.965 C 127.339 240.703,126.844 240.047,126.239 239.507 C 125.633 238.968,125.138 238.310,125.138 238.045 C 125.138 237.780,124.642 237.008,124.037 236.330 C 123.431 235.652,122.936 234.872,122.936 234.596 C 122.936 234.321,122.525 233.684,122.022 233.181 C 121.520 232.679,121.008 231.867,120.885 231.378 C 120.762 230.888,120.248 230.042,119.743 229.497 C 119.238 228.952,118.590 227.839,118.302 227.024 C 118.014 226.208,117.525 225.260,117.215 224.918 C 116.904 224.575,116.423 223.431,116.145 222.377 C 115.866 221.322,115.319 220.108,114.929 219.679 C 114.539 219.250,114.105 218.239,113.965 217.431 C 113.825 216.624,113.315 215.385,112.832 214.679 C 112.271 213.857,111.868 212.602,111.714 211.193 C 111.582 209.982,111.105 208.330,110.654 207.523 C 110.053 206.446,109.715 204.907,109.387 201.749 C 109.141 199.381,108.610 196.507,108.208 195.363 C 107.291 192.753,107.278 170.168,108.193 169.067 C 108.464 168.741,108.930 166.308,109.242 163.598 C 109.643 160.109,110.041 158.244,110.635 157.064 C 111.093 156.156,111.577 154.422,111.711 153.211 C 111.866 151.807,112.272 150.544,112.832 149.725 C 113.315 149.018,113.825 147.780,113.965 146.972 C 114.105 146.165,114.543 145.149,114.939 144.714 C 115.335 144.279,115.818 143.206,116.013 142.328 C 116.208 141.451,116.753 140.156,117.224 139.450 C 117.695 138.743,118.176 137.747,118.293 137.237 C 118.410 136.727,119.007 135.747,119.620 135.061 C 120.233 134.374,120.734 133.537,120.734 133.199 C 120.734 132.862,121.229 132.068,121.835 131.434 C 122.440 130.800,122.936 130.038,122.936 129.741 C 122.936 129.443,123.431 128.636,124.037 127.946 C 124.642 127.256,125.138 126.491,125.138 126.246 C 125.138 126.000,125.592 125.336,126.147 124.769 C 127.260 123.633,130.138 120.436,132.561 117.644 C 134.417 115.506,137.294 112.681,139.690 110.642 C 140.640 109.835,141.841 108.739,142.360 108.207 C 142.878 107.675,143.666 107.130,144.110 106.996 C 144.553 106.861,145.019 106.430,145.144 106.036 C 145.268 105.643,145.674 105.321,146.045 105.321 C 146.416 105.321,147.411 104.743,148.257 104.037 C 149.102 103.330,150.014 102.752,150.283 102.752 C 150.552 102.752,151.075 102.367,151.446 101.897 C 151.816 101.426,152.558 100.931,153.095 100.796 C 153.632 100.661,154.539 100.164,155.109 99.692 C 155.680 99.219,156.718 98.638,157.415 98.400 C 158.113 98.162,159.053 97.620,159.503 97.197 C 159.954 96.774,161.105 96.281,162.062 96.102 C 163.018 95.924,164.094 95.462,164.453 95.077 C 165.080 94.405,165.536 94.258,168.495 93.777 C 169.231 93.657,170.250 93.231,170.758 92.832 C 171.267 92.432,172.481 92.009,173.456 91.893 C 175.503 91.650,177.182 91.099,178.010 90.399 C 178.328 90.130,179.897 89.817,181.496 89.703 C 185.160 89.443,191.567 88.458,192.294 88.043 C 193.043 87.615,194.862 87.624,194.862 88.055 M245.145 109.238 C 244.241 109.332,243.329 109.551,243.118 109.726 C 242.908 109.900,241.554 110.370,240.109 110.771 C 238.664 111.171,236.854 111.925,236.087 112.447 C 235.320 112.968,234.547 113.394,234.369 113.394 C 234.036 113.394,232.962 114.221,229.631 117.042 C 227.759 118.626,224.220 122.734,224.220 123.321 C 224.220 123.482,223.840 124.080,223.374 124.651 C 222.909 125.221,222.298 126.431,222.017 127.339 C 221.736 128.248,221.189 129.615,220.802 130.378 C 219.093 133.744,219.306 146.982,221.116 149.908 C 221.365 150.312,221.769 151.272,222.013 152.041 C 223.410 156.443,229.859 163.620,234.999 166.492 C 241.877 170.335,254.298 171.082,260.796 168.045 C 262.057 167.455,263.224 166.972,263.389 166.972 C 263.554 166.972,264.593 166.311,265.698 165.504 C 267.847 163.932,267.927 163.872,269.418 162.719 C 269.955 162.303,271.229 160.902,272.249 159.605 C 273.269 158.309,274.421 156.917,274.810 156.514 C 275.198 156.110,275.641 155.367,275.793 154.862 C 275.946 154.358,276.459 153.329,276.934 152.576 C 277.409 151.823,277.798 150.991,277.798 150.727 C 277.798 150.462,278.064 149.262,278.389 148.059 C 279.278 144.765,280.000 140.891,279.993 139.450 C 279.982 137.019,277.801 128.493,276.821 127.048 C 276.450 126.502,275.899 125.447,275.596 124.704 C 274.616 122.295,269.241 116.575,265.854 114.335 C 261.796 111.650,261.105 111.283,259.302 110.851 C 258.313 110.614,257.025 110.173,256.440 109.870 C 255.329 109.296,248.357 108.905,245.145 109.238 M256.944 111.223 C 259.429 111.846,261.546 112.479,261.649 112.631 C 261.751 112.783,262.595 113.349,263.524 113.888 C 264.453 114.428,265.511 115.198,265.875 115.600 C 266.238 116.001,266.836 116.330,267.203 116.330 C 267.571 116.330,268.121 116.814,268.427 117.405 C 268.733 117.996,269.279 118.574,269.640 118.689 C 270.001 118.803,270.484 119.393,270.713 119.999 C 270.942 120.605,271.364 121.101,271.652 121.101 C 271.940 121.101,272.374 121.537,272.617 122.069 C 272.860 122.602,273.452 123.347,273.932 123.725 C 274.413 124.103,274.913 124.898,275.043 125.492 C 275.173 126.085,275.581 126.953,275.948 127.420 C 277.086 128.867,278.512 135.281,278.525 139.012 C 278.538 142.665,277.234 150.319,276.442 151.241 C 276.160 151.570,275.752 152.479,275.536 153.259 C 275.321 154.040,274.653 155.257,274.054 155.963 C 273.454 156.670,272.441 157.885,271.803 158.664 C 269.580 161.378,266.743 164.037,266.071 164.037 C 265.874 164.037,265.170 164.514,264.506 165.097 C 263.842 165.680,262.447 166.410,261.406 166.719 C 260.365 167.028,259.127 167.534,258.655 167.842 C 257.221 168.781,250.221 169.295,245.413 168.815 C 242.976 168.572,240.933 168.173,240.427 167.842 C 239.956 167.534,238.782 167.047,237.819 166.761 C 236.855 166.475,235.443 165.745,234.680 165.139 C 233.918 164.533,233.088 164.037,232.836 164.037 C 232.584 164.037,232.107 163.624,231.777 163.119 C 231.446 162.615,230.958 162.202,230.692 162.202 C 230.098 162.202,225.484 156.748,224.884 155.336 C 224.645 154.773,224.089 153.899,223.649 153.394 C 223.209 152.890,222.742 151.904,222.610 151.204 C 222.479 150.504,221.951 148.881,221.437 147.596 C 220.145 144.367,220.205 134.122,221.532 131.376 C 221.971 130.468,222.443 129.147,222.581 128.440 C 222.720 127.734,223.236 126.619,223.729 125.962 C 224.223 125.306,224.799 124.274,225.009 123.669 C 225.220 123.064,225.540 122.569,225.719 122.569 C 225.899 122.569,226.451 121.927,226.947 121.142 C 227.442 120.357,228.972 118.779,230.346 117.634 C 231.720 116.490,233.198 115.233,233.630 114.841 C 234.062 114.449,234.616 114.128,234.861 114.128 C 235.106 114.128,235.991 113.667,236.828 113.103 C 237.725 112.498,239.533 111.818,241.240 111.444 C 242.830 111.095,244.398 110.653,244.726 110.462 C 246.088 109.666,252.264 110.051,256.944 111.223 " stroke="none"  fill-rule="evenodd"></path></g></svg>