<?xml version="1.0" encoding="UTF-8"?>
<svg version="1.1" xmlns="http://www.w3.org/2000/svg" viewBox='0 0 900 950'>
<path d="M0 0 C1.44866959 0.00273422 1.44866959 0.00273422 2.92660522 0.00552368 C17.60148204 0.05208171 31.917527 0.60697627 46.375 3.3125 C47.2717041 3.4681543 48.1684082 3.62380859 49.09228516 3.78417969 C98.51462956 12.51038041 144.61500245 36.3060443 181.18359375 70.46484375 C183.19159848 72.15786734 184.97884216 73.2699803 187.375 74.3125 C187.94154297 73.71115234 187.94154297 73.71115234 188.51953125 73.09765625 C193.76111458 67.68421773 199.47629126 62.9899917 205.375 58.3125 C206.86 57.11947266 206.86 57.11947266 208.375 55.90234375 C242.90530664 28.66656438 283.34907081 11.65778405 326.375 3.3125 C327.28459473 3.13315918 328.19418945 2.95381836 329.13134766 2.76904297 C357.3175115 -2.48423613 390.26941814 -2.28803414 418.375 3.3125 C419.30779785 3.48942383 420.2405957 3.66634766 421.20166016 3.84863281 C458.33905795 10.98404125 494.62122629 25.0038695 525.375 47.3125 C526.42558594 48.07175781 527.47617187 48.83101563 528.55859375 49.61328125 C540.13921276 58.15490979 550.95042233 67.41223541 561.375 77.3125 C562.20257812 78.09753906 563.03015625 78.88257813 563.8828125 79.69140625 C568.67308335 84.35649581 572.96499103 89.29586528 577.13671875 94.51953125 C578.57109581 96.30937348 580.03017734 98.07985706 581.51953125 99.82421875 C625.82566108 151.9537733 640.53505755 217.6287924 640.52026367 284.33447266 C640.52272126 287.04314813 640.52663654 289.75182112 640.53044128 292.460495 C640.53869035 299.01895943 640.54149343 305.57741487 640.54205366 312.13588406 C640.54253121 317.47052815 640.54459779 322.80516931 640.54775429 328.13981247 C640.55654226 343.30285967 640.56117614 358.46589983 640.56042381 373.6289496 C640.56036388 374.85095939 640.56036388 374.85095939 640.56030273 376.09765625 C640.56024141 377.32117613 640.56024141 377.32117613 640.56017885 378.56941359 C640.55977208 391.79916361 640.56935449 405.02888521 640.5834411 418.25862701 C640.59782954 431.88037265 640.60471005 445.50210443 640.60384732 459.12385786 C640.60351639 466.75660174 640.60621843 474.38931577 640.61702538 482.02205276 C640.62616256 488.51628978 640.62827903 495.01048336 640.62151595 501.50472404 C640.61826797 504.81185406 640.61923466 508.11883345 640.6268692 511.42596626 C640.68709959 539.333382 638.12074657 564.49505409 617.84082031 585.85400391 C601.57631523 602.03724064 580.35949817 610.26728403 557.44628906 610.3515625 C537.40840318 609.97366743 519.34325468 602.47969639 504.375 589.3125 C503.61316406 588.64605469 502.85132813 587.97960937 502.06640625 587.29296875 C488.86577665 574.9617047 479.43290829 556.73182943 478.18861103 538.59582508 C478.11458268 535.63168546 478.10055335 532.67341031 478.10998535 529.70835876 C478.10560408 528.58066513 478.10122281 527.4529715 478.09670877 526.29110533 C478.08444323 522.53379158 478.08619322 518.77661849 478.08789062 515.01928711 C478.08297439 512.31635953 478.07503938 509.61344289 478.06718445 506.91052246 C478.05177136 501.09885922 478.04332877 495.28722014 478.03947449 489.47553825 C478.03370543 481.05445306 478.01508299 472.63343239 477.99303395 464.21237583 C477.95735519 450.52318627 477.92902792 436.83399304 477.90673828 423.14477539 C477.90540329 422.32648939 477.9040683 421.50820339 477.90269285 420.66512085 C477.89326991 414.86008087 477.8841083 409.05504048 477.875 403.25 C477.86460868 396.63094044 477.85408845 390.01188112 477.84326172 383.39282227 C477.84126561 382.17008424 477.84126561 382.17008424 477.83922917 380.92264443 C477.81673503 367.29088763 477.78650862 353.65915824 477.75086927 340.02742964 C477.72930483 331.63698355 477.71461192 323.24658014 477.70903051 314.8561079 C477.70475641 309.09667063 477.69344874 303.33727397 477.67680657 297.57785928 C477.66747995 294.26433362 477.66236409 290.95094779 477.66386986 287.63739967 C477.67388063 256.80488367 475.03441259 226.9127254 454.375 202.3125 C453.65441406 201.45398438 452.93382812 200.59546875 452.19140625 199.7109375 C434.96555437 179.94748178 411.5772109 166.62649121 385.375 163.3125 C356.72969451 161.71523998 328.25470421 167.55006429 306.0546875 186.8515625 C304.72824219 188.06972656 304.72824219 188.06972656 303.375 189.3125 C302.8893457 189.75045898 302.40369141 190.18841797 301.90332031 190.63964844 C282.46879706 208.32668726 270.44350726 233.06689734 268.375 259.3125 C267.99267823 268.32831989 268.09417097 277.36096042 268.10375977 286.3828125 C268.10048529 289.12075272 268.09417278 291.85868382 268.08792114 294.59661865 C268.07593659 300.47097272 268.07077142 306.34529979 268.07003975 312.21966553 C268.06870715 320.72801766 268.05353519 329.23630485 268.03454458 337.74463391 C268.00377547 351.57258643 267.97957628 365.4005406 267.96166992 379.22851562 C267.96059724 380.05429839 267.95952456 380.88008116 267.95841938 381.73088765 C267.94659904 390.94388132 267.93639159 400.15687565 267.92797852 409.36987305 C267.92490429 412.71207684 267.92181554 416.05428062 267.91870117 419.39648438 C267.91793583 420.22124936 267.91717049 421.04601435 267.91638196 421.89577222 C267.90327508 435.6756817 267.8786042 449.45554389 267.84495777 463.23541832 C267.82474081 471.71675183 267.81436824 480.19798401 267.81694698 488.67934179 C267.81798647 494.49433282 267.80827452 500.30924391 267.79030795 506.12420702 C267.78032198 509.47187692 267.77672872 512.8192226 267.78307533 516.16692352 C267.82870376 543.06313975 263.96064991 566.42135879 244.3203125 586.4921875 C227.91153669 602.55253542 207.26270672 610.27208338 184.55761719 610.35595703 C162.74232582 609.92160336 143.47079415 600.74343075 127.8359375 585.90234375 C107.38335846 564.29008239 104.91793884 539.46363677 105.00610352 511.24560547 C105.00531893 508.50754671 104.99995245 505.7695017 104.99468994 503.03144836 C104.98557636 497.15544965 104.98682959 491.27952922 104.99487495 485.40353012 C105.00616818 476.88628912 104.99701033 468.36915818 104.98231315 459.8519267 C104.95859061 446.00089574 104.94518396 432.14987843 104.94116211 418.29882812 C104.94091724 417.4716286 104.94067237 416.64442908 104.94042008 415.79216291 C104.93787629 406.5716671 104.93730647 397.35117234 104.93835449 388.13067627 C104.93868753 384.78991699 104.93897292 381.44915772 104.93920898 378.10839844 C104.93927177 377.28403887 104.93933456 376.45967931 104.93939925 375.61033915 C104.9400062 361.81457829 104.92503696 348.01888026 104.89837593 334.2231456 C104.88265939 325.73871681 104.88021905 317.25449222 104.89550995 308.77006157 C104.90504564 302.9452061 104.90011149 297.12047274 104.88429613 291.29563145 C104.87568576 287.94712666 104.87550456 284.59921295 104.88882256 281.25068474 C105.00445286 250.07814341 99.48437855 222.25508437 78.375 198.3125 C77.90964844 197.7040625 77.44429688 197.095625 76.96484375 196.46875 C62.89151325 178.22076183 38.29899497 167.69094105 16.24609375 163.75390625 C-12.05652305 160.52666538 -40.32949971 166.44079353 -63.16796875 183.94921875 C-85.16440402 201.62645802 -99.89181097 226.17364502 -103.625 254.3125 C-103.77510667 258.05216663 -103.77112523 261.78943573 -103.76976013 265.53173828 C-103.7750504 267.23357789 -103.7750504 267.23357789 -103.78044754 268.96979809 C-103.7911277 272.77414036 -103.7948144 276.57845758 -103.79858398 280.3828125 C-103.80433182 283.10971853 -103.81159736 285.83661995 -103.81884766 288.56352234 C-103.83377055 294.43855463 -103.84532261 300.31358567 -103.85479546 306.18862915 C-103.86869366 314.69816772 -103.88988625 323.20767684 -103.91322399 331.7171942 C-103.95112946 345.54404047 -103.98609323 359.37089209 -104.01782227 373.19775391 C-104.020673 374.43872816 -104.020673 374.43872816 -104.02358133 375.70477259 C-104.05038239 387.43138041 -104.07426549 399.15799237 -104.09696633 410.88460875 C-104.09856363 411.70949938 -104.10016094 412.53439002 -104.10180664 413.38427734 C-104.10340011 414.20815712 -104.10499357 415.03203691 -104.10663532 415.88088274 C-104.13345762 429.64697303 -104.16788076 443.41303203 -104.20846039 457.17908859 C-104.23315725 465.65986633 -104.25152743 474.1406105 -104.261616 482.62141842 C-104.26904058 488.44161452 -104.28361712 494.26176551 -104.30368023 500.08193165 C-104.31500375 503.43353415 -104.32211715 506.78500171 -104.32267189 510.13663292 C-104.33144047 539.45814397 -107.19617515 564.57027369 -128.625 586.3125 C-129.17542969 586.93511719 -129.72585937 587.55773437 -130.29296875 588.19921875 C-143.38020201 602.57901826 -164.19791007 609.26426649 -183.13110352 610.23779297 C-205.72130932 610.96707714 -225.64257358 602.81042203 -242.34765625 587.87890625 C-256.35951374 574.59944297 -266.370473 555.82248549 -267.00252342 536.23057842 C-267.01878985 534.04478565 -267.01909657 531.85883318 -267.00595093 529.67301941 C-267.0106309 528.45801217 -267.01531087 527.24300493 -267.02013266 525.99117929 C-267.02995678 522.65344304 -267.02651847 519.31622062 -267.01717401 515.9785167 C-267.0103416 512.36473993 -267.0208859 508.75100567 -267.02911377 505.13723755 C-267.04241335 498.06850567 -267.03958897 490.99986968 -267.03087585 483.93113413 C-267.02407889 478.17646115 -267.02319127 472.4218149 -267.0264473 466.66713905 C-267.026907 465.84557255 -267.02736669 465.02400604 -267.02784032 464.17754358 C-267.0287996 462.5079908 -267.02977224 460.83843803 -267.0307581 459.16888527 C-267.03930248 443.53031633 -267.0294959 427.89180023 -267.013357 412.25323997 C-266.99998225 398.88047 -267.00226025 385.50777828 -267.01611328 372.13500977 C-267.03223369 356.56644175 -267.03844971 340.99792015 -267.02927649 325.42934495 C-267.02832098 323.76284143 -267.02737786 322.0963379 -267.0264473 320.42983437 C-267.02598447 319.61014163 -267.02552164 318.79044889 -267.02504479 317.94591698 C-267.02247213 312.21429621 -267.02678893 306.48270524 -267.03388596 300.7510891 C-267.04237452 293.74205738 -267.03986983 286.7331262 -267.02404372 279.72410574 C-267.0162542 276.15867273 -267.01290563 272.59340618 -267.02299118 269.02797508 C-267.07717249 248.140078 -265.85364539 227.73771205 -260.9375 207.375 C-260.68331299 206.30491699 -260.42912598 205.23483398 -260.16723633 204.13232422 C-249.42881614 160.37511008 -227.80430358 118.96684404 -196.625 86.3125 C-195.3660227 84.88285584 -194.11496369 83.44616607 -192.875 82 C-187.27639573 75.56359984 -181.15605386 69.79150212 -174.625 64.3125 C-174.13596191 63.8990332 -173.64692383 63.48556641 -173.14306641 63.05957031 C-146.27323635 40.48083191 -115.13368421 22.82160038 -81.625 12.3125 C-80.34906982 11.9105542 -80.34906982 11.9105542 -79.04736328 11.50048828 C-69.44805687 8.52015275 -59.80571042 5.98323238 -49.9375 4.0625 C-49.16801025 3.91143799 -48.39852051 3.76037598 -47.60571289 3.60473633 C-31.77266013 0.70982011 -16.06079182 -0.06313544 0 0 Z " transform="translate(266.625,289.6875)"/>

<path d="M0 0 C1.39919678 0.26538574 1.39919678 0.26538574 2.82666016 0.53613281 C39.96405795 7.67154125 76.24622629 21.6913695 107 44 C108.05058594 44.75925781 109.10117187 45.51851563 110.18359375 46.30078125 C121.76421276 54.84240979 132.57542233 64.09973541 143 74 C143.82757812 74.78503906 144.65515625 75.57007813 145.5078125 76.37890625 C150.29808335 81.04399581 154.58999103 85.98336528 158.76171875 91.20703125 C160.19609581 92.99687348 161.65517734 94.76735706 163.14453125 96.51171875 C207.45066108 148.6412733 222.16005755 214.3162924 222.14526367 281.02197266 C222.14772126 283.73064813 222.15163654 286.43932112 222.15544128 289.147995 C222.16369035 295.70645943 222.16649343 302.26491487 222.16705366 308.82338406 C222.16753121 314.15802815 222.16959779 319.49266931 222.17275429 324.82731247 C222.18154226 339.99035967 222.18617614 355.15339983 222.18542381 370.3164496 C222.18536388 371.53845939 222.18536388 371.53845939 222.18530273 372.78515625 C222.18526185 373.60083617 222.18522097 374.41651609 222.18517885 375.25691359 C222.18477208 388.48666361 222.19435449 401.71638521 222.2084411 414.94612701 C222.22282954 428.56787265 222.22971005 442.18960443 222.22884732 455.81135786 C222.22851639 463.44410174 222.23121843 471.07681577 222.24202538 478.70955276 C222.25116256 485.20378978 222.25327903 491.69798336 222.24651595 498.19222404 C222.24326797 501.49935406 222.24423466 504.80633345 222.2518692 508.11346626 C222.31209959 536.020882 219.74574657 561.18255409 199.46582031 582.54150391 C183.20131523 598.72474064 161.98449817 606.95478403 139.07128906 607.0390625 C119.03340318 606.66116743 100.96825468 599.16719639 86 586 C85.23816406 585.33355469 84.47632813 584.66710937 83.69140625 583.98046875 C70.49077665 571.6492047 61.05790829 553.41932943 59.81361103 535.28332508 C59.73958268 532.31918546 59.72555335 529.36091031 59.73498535 526.39585876 C59.73060408 525.26816513 59.72622281 524.1404715 59.72170877 522.97860533 C59.70944323 519.22129158 59.71119322 515.46411849 59.71289062 511.70678711 C59.70797439 509.00385953 59.70003938 506.30094289 59.69218445 503.59802246 C59.67677136 497.78635922 59.66832877 491.97472014 59.66447449 486.16303825 C59.65870543 477.74195306 59.64008299 469.32093239 59.61803395 460.89987583 C59.58235519 447.21068627 59.55402792 433.52149304 59.53173828 419.83227539 C59.53040329 419.01398939 59.5290683 418.19570339 59.52769285 417.35262085 C59.51826991 411.54758087 59.5091083 405.74254048 59.5 399.9375 C59.48960868 393.31844044 59.47908845 386.69938112 59.46826172 380.08032227 C59.46693098 379.26516358 59.46560023 378.45000489 59.46422917 377.61014443 C59.44173503 363.97838763 59.41150862 350.34665824 59.37586927 336.71492964 C59.35430483 328.32448355 59.33961192 319.93408014 59.33403051 311.5436079 C59.32975641 305.78417063 59.31844874 300.02477397 59.30180657 294.26535928 C59.29247995 290.95183362 59.28736409 287.63844779 59.28886986 284.32489967 C59.29888063 253.49238367 56.65941259 223.6002254 36 199 C35.27941406 198.14148438 34.55882812 197.28296875 33.81640625 196.3984375 C16.59055437 176.63498178 -6.7977891 163.31399121 -33 160 C-61.64530549 158.40273998 -90.12029579 164.23756429 -112.3203125 183.5390625 C-113.64675781 184.75722656 -113.64675781 184.75722656 -115 186 C-115.4856543 186.43795898 -115.97130859 186.87591797 -116.47167969 187.32714844 C-136.23366469 205.3122048 -147.2353327 229.59123774 -150 256 C-150.33 256 -150.66 256 -151 256 C-151.05422119 255.32984863 -151.10844238 254.65969727 -151.16430664 253.96923828 C-154.13149046 218.98180962 -161.16916546 184.96455646 -176 153 C-176.39203613 152.15405273 -176.78407227 151.30810547 -177.18798828 150.43652344 C-190.67433696 121.69439945 -209.56448648 97.2024322 -231 74 C-220.51903923 48.54623814 -175.07515779 27.73150304 -151.625 17.75 C-132.31654911 9.83322978 -112.48028198 3.97234351 -92 0 C-91.09040527 -0.17934082 -90.18081055 -0.35868164 -89.24365234 -0.54345703 C-61.0574885 -5.79673613 -28.10558186 -5.60053414 0 0 Z " transform="translate(685,293)"/>
<path d="M0 0 C3.53072613 1.24799344 5.69457657 4.19983501 8.14013672 6.921875 C8.71159424 7.54900391 9.28305176 8.17613281 9.87182617 8.82226562 C15.61590283 15.20120972 20.93366394 21.8666655 26.07763672 28.734375 C26.69735352 29.55276855 26.69735352 29.55276855 27.32958984 30.38769531 C52.64703749 63.99048834 67.9112624 101.6797841 76.07763672 142.734375 C76.25456055 143.55856934 76.43148437 144.38276367 76.61376953 145.23193359 C80.48329508 164.33536795 80.37238331 183.84260141 80.35229492 203.24194336 C80.35556536 206.04988013 80.36177521 208.8578089 80.36778259 211.66574097 C80.38041697 218.44745257 80.38233791 225.22912438 80.37998233 232.01084577 C80.3781879 237.52653288 80.37997265 243.04220806 80.38420677 248.55789375 C80.38480196 249.34753502 80.38539715 250.13717629 80.38601037 250.95074608 C80.38722229 252.55557263 80.38843642 254.16039917 80.38965275 255.76522572 C80.40048275 270.75115869 80.39838619 285.73706906 80.39226791 300.72300328 C80.38709081 314.40510842 80.39838317 328.08714254 80.41736612 341.76923364 C80.43677238 355.86574746 80.4449964 369.96222772 80.44124287 384.05875498 C80.43933659 391.95412546 80.44176319 399.84943535 80.45595741 407.74479485 C80.4679071 414.45851639 80.46923529 421.17213995 80.45716725 427.88586294 C80.45130646 431.30443182 80.45010109 434.72282177 80.46216965 438.1413784 C80.53872197 465.21775303 76.81070694 488.69258222 57.02294922 508.9140625 C40.61417341 524.97441042 19.96534344 532.69395838 -2.73974609 532.77783203 C-24.55503746 532.34347836 -43.82656913 523.16530575 -59.46142578 508.32421875 C-79.92495254 486.70038893 -82.38241193 461.85598105 -82.29467773 433.62329102 C-82.29545064 430.88024827 -82.30071563 428.13721811 -82.30574036 425.3941803 C-82.31518232 418.74147742 -82.3086675 412.08888377 -82.29647741 405.43618906 C-82.28277458 397.66439743 -82.28450279 389.89263106 -82.28661074 382.12083041 C-82.28979443 368.23328203 -82.27817252 354.34578507 -82.25854492 340.45825195 C-82.23957667 327.03343131 -82.23244953 313.60867098 -82.23803711 300.18383789 C-82.24412189 285.52132207 -82.24386619 270.8588327 -82.23255128 256.19631904 C-82.23134418 254.62645876 -82.2301382 253.05659849 -82.22893333 251.4867382 C-82.2283298 250.71462532 -82.22772626 249.94251243 -82.22710443 249.14700218 C-82.22325434 243.75249933 -82.22360764 238.35800643 -82.22551918 232.96350288 C-82.22766173 226.36625988 -82.22226474 219.76906918 -82.20790563 213.17184079 C-82.20075705 209.81703693 -82.1976007 206.46237041 -82.20114899 203.10755157 C-82.21959749 182.52414083 -81.50200448 162.07932515 -77.73486328 141.796875 C-77.52128174 140.63285156 -77.3077002 139.46882812 -77.08764648 138.26953125 C-73.47042332 119.39483258 -67.6797948 101.30277384 -59.92236328 83.734375 C-59.52033691 82.82333008 -59.11831055 81.91228516 -58.70410156 80.97363281 C-50.2065481 61.97833753 -39.98121757 43.98539367 -26.92236328 27.734375 C-26.18501953 26.80625 -25.44767578 25.878125 -24.68798828 24.921875 C-19.64555173 18.66229859 -14.38159351 12.63273892 -8.92236328 6.734375 C-8.26880859 6.00347656 -7.61525391 5.27257812 -6.94189453 4.51953125 C-6.03503906 3.54306641 -6.03503906 3.54306641 -5.10986328 2.546875 C-4.58779297 1.97582031 -4.06572266 1.40476562 -3.52783203 0.81640625 C-1.92236328 -0.265625 -1.92236328 -0.265625 0 0 Z " transform="translate(453.92236328125,367.265625)"/>
<path d="M0 0 C0.96583008 0.31348389 0.96583008 0.31348389 1.95117188 0.63330078 C28.02661496 9.3973281 48.95475809 27.90566311 62 52 C74.78419367 78.07146904 77.99737926 108.13427754 68.75146484 135.95019531 C64.51065066 147.51805624 58.94247287 158.53956417 51 168 C50.29101562 168.84691406 49.58203125 169.69382813 48.8515625 170.56640625 C30.27415664 191.91412702 5.43388345 205.55148081 -23 208 C-52.83024945 209.66104332 -81.06783832 201.67937297 -103.63330078 181.54248047 C-124.2041239 162.64262644 -137.56203995 136.92966674 -139.12109375 108.81640625 C-140.38376833 78.86576523 -130.93956167 51.53921503 -110.875 29 C-83.38945315 -0.73523646 -38.7404873 -12.80555621 0 0 Z " transform="translate(672,4)"/>
<path d="M0 0 C1.66848631 1.30487492 3.31526231 2.63805653 4.9375 4 C5.78441406 4.70898438 6.63132812 5.41796875 7.50390625 6.1484375 C28.67435595 24.57157694 42.29781412 48.83402309 44.9375 77 C46.76120248 107.36074957 38.83866018 134.72576183 18.9375 158 C18.4940625 158.5878125 18.050625 159.175625 17.59375 159.78125 C2.82620526 178.87100295 -23.67078179 190.14122092 -46.8515625 193.55859375 C-74.98687861 196.88061102 -103.8419112 189.93807581 -126.2578125 172.30859375 C-127.18335938 171.54675781 -128.10890625 170.78492188 -129.0625 170 C-130.35800781 168.93458984 -130.35800781 168.93458984 -131.6796875 167.84765625 C-147.58160711 154.15020836 -157.90598345 136.91633105 -164.0625 117 C-164.4028125 115.90429688 -164.743125 114.80859375 -165.09375 113.6796875 C-171.8406671 86.75449055 -167.19961907 56.37354599 -152.9909668 32.66235352 C-148.18343687 24.96252271 -142.38063493 18.47916685 -136.0625 12 C-135.41925781 11.28328125 -134.77601563 10.5665625 -134.11328125 9.828125 C-100.94742188 -26.1435229 -38.43537345 -27.00718387 0 0 Z " transform="translate(328.0625,18)"/>
</svg>
