<?xml version="1.0" encoding="UTF-8"?>
<svg version="1.1" xmlns="http://www.w3.org/2000/svg"  viewBox="0 -70 250 250">
<path d="M0 0 C4.39821497 1.09955374 6.59903275 2.96033081 9.875 5.875 C11.03986549 6.88619323 12.20659263 7.89524516 13.375 8.90234375 C13.97441406 9.41909668 14.57382813 9.93584961 15.19140625 10.46826172 C18.02585942 12.86882317 20.9436274 15.1570352 23.875 17.4375 C31.30404386 23.22536604 38.65282248 29.10839538 46 35 C46.33 23.78 46.66 12.56 47 1 C55.25 1 63.5 1 72 1 C72 28.39 72 55.78 72 84 C66.65562269 82.93112454 64.41208124 81.13551863 60.5625 77.625 C59.31590525 76.52235726 58.06714923 75.42215384 56.81640625 74.32421875 C55.86531982 73.48769775 55.86531982 73.48769775 54.89501953 72.63427734 C52.0032211 70.1403713 49.01420314 67.78093321 46 65.4375 C45.43337646 64.99639893 44.86675293 64.55529785 44.28295898 64.10083008 C43.12646024 63.20212975 41.96930965 62.30426765 40.81152344 61.40722656 C37.57130321 58.8901606 34.34959621 56.34952639 31.125 53.8125 C29.10375 52.224375 27.0825 50.63625 25 49 C24.67 60.22 24.34 71.44 24 83 C16.08 83 8.16 83 0 83 C0 55.61 0 28.22 0 0 Z "  transform="translate(0,0)"/>
<path d="M0 0 C4.49832382 -0.32137305 8.99369159 -0.51538405 13.5 -0.6875 C14.7684375 -0.77966797 16.036875 -0.87183594 17.34375 -0.96679688 C26.63578089 -1.23297484 26.63578089 -1.23297484 30.5859375 2.3371582 C32.63456501 5.14253034 34.34554763 7.94874724 36 11 C36.99356622 12.52504432 37.99276346 14.04644968 39 15.5625 C41 19 41 19 41 21 C43.91084251 18.58296113 45.39465126 16.32476512 46.8125 12.890625 C49.10026292 7.80592414 51.29638254 3.22239486 56 0 C65.08607253 -2.20090629 74.80008728 -1.03596286 84 0 C79.73255776 6.83429477 75.32511746 13.50150234 70.5625 20 C70.00409424 20.76747559 69.44568848 21.53495117 68.87036133 22.32568359 C67.76229346 23.84801684 66.65288468 25.36937517 65.54199219 26.88964844 C64.15245063 28.79135794 62.76650694 30.69559655 61.3828125 32.6015625 C59.59089426 35.06943567 57.79671739 37.53562026 56 40 C61.46233692 48.90514787 67.45866759 57.3871881 73.50878906 65.89746094 C75.77135532 69.08757565 78.0159015 72.2899007 80.25 75.5 C80.97703125 76.5415625 81.7040625 77.583125 82.453125 78.65625 C84 81 84 81 84 82 C60.21521544 85.19324795 60.21521544 85.19324795 53.43017578 80.05322266 C49.30430708 75.22970187 46.46254185 69.76604121 43.97607422 63.94946289 C43.15814978 61.82925856 43.15814978 61.82925856 41 61 C40.74992187 61.65355469 40.49984375 62.30710938 40.2421875 62.98046875 C39.83226562 63.97691406 39.42234375 64.97335938 39 66 C38.75411133 66.63115723 38.50822266 67.26231445 38.25488281 67.91259766 C35.91900787 73.47239855 33.22193612 78.72245894 28 82 C18.88009167 84.05836481 9.21833364 82.97697615 0 82 C0.74443359 80.72769531 0.74443359 80.72769531 1.50390625 79.4296875 C15.37405034 56.55872626 15.37405034 56.55872626 15.625 30.625 C12.30851395 19.55009171 5.91326395 9.84619767 0 0 Z M14 15 C14.433125 16.01835937 14.86625 17.03671875 15.3125 18.0859375 C21.92509847 34.50660253 21.76899089 47.75442187 15 64 C15 64.66 15 65.32 15 66 C18.08765787 64.56678809 20.69655215 62.85023166 23.4140625 60.8046875 C24.67331543 59.85928101 24.67331543 59.85928101 25.95800781 58.89477539 C27.27816895 57.89498657 27.27816895 57.89498657 28.625 56.875 C29.52057617 56.20009521 30.41615234 55.52519043 31.33886719 54.82983398 C37.30740515 50.31869184 43.22455092 45.75714622 49 41 C46.42026715 38.3253121 43.81410339 36.00526528 40.8046875 33.828125 C40.01054443 33.24949707 39.21640137 32.67086914 38.39819336 32.07470703 C37.56553955 31.47255371 36.73288574 30.87040039 35.875 30.25 C29.67908019 25.73885831 23.58465281 21.18886475 17.71484375 16.2578125 C16.085665 14.80285224 16.085665 14.80285224 14 15 Z " transform="translate(83,1)"/>
<path d="M0 0 C21.78 0 43.56 0 66 0 C66 6.93 66 13.86 66 21 C59.4 21 52.8 21 46 21 C46 41.13 46 61.26 46 82 C37.75 82 29.5 82 21 82 C21 61.87 21 41.74 21 21 C14.07 21 7.14 21 0 21 C0 14.07 0 7.14 0 0 Z "  transform="translate(173,1)"/>
</svg>
