<?xml version="1.0" encoding="UTF-8"?>
<!DOCTYPE svg PUBLIC "-//W3C//DTD SVG 1.1//EN" "http://www.w3.org/Graphics/SVG/1.1/DTD/svg11.dtd">
<svg xmlns="http://www.w3.org/2000/svg" version="1.1" style="shape-rendering:geometricPrecision; text-rendering:geometricPrecision; image-rendering:optimizeQuality; fill-rule:evenodd; clip-rule:evenodd" xmlns:xlink="http://www.w3.org/1999/xlink" viewBox='0 0 500 500'>
<g><path fill='white' d="M 116.5,61.5 C 205.167,61.3333 293.834,61.5 382.5,62C 413.333,67.5 431.5,85.6667 437,116.5C 437.667,205.167 437.667,293.833 437,382.5C 431.5,413.333 413.333,431.5 382.5,437C 293.833,437.667 205.167,437.667 116.5,437C 85.6667,431.5 67.5,413.333 62,382.5C 61.3333,293.833 61.3333,205.167 62,116.5C 67.6795,85.6543 85.8462,67.321 116.5,61.5 Z M 117.5,83.5 C 169.834,83.3333 222.168,83.5 274.5,84C 211,147.5 147.5,211 84,274.5C 83.3333,222.167 83.3333,169.833 84,117.5C 88.682,99.6521 99.8487,88.3187 117.5,83.5 Z M 305.5,83.5 C 330.836,83.3334 356.169,83.5 381.5,84C 399.333,88.5 410.5,99.6667 415,117.5C 415.5,161.499 415.667,205.499 415.5,249.5C 358.166,249.667 300.832,249.5 243.5,249C 226.667,232.167 209.833,215.333 193,198.5C 192.333,197.833 192.333,197.167 193,196.5C 230.701,158.965 268.201,121.299 305.5,83.5 Z M 175.5,213.5 C 243.583,280.083 311.25,347.25 378.5,415C 291.5,415.667 204.5,415.667 117.5,415C 99.6667,410.5 88.5,399.333 84,381.5C 83.3333,356.167 83.3333,330.833 84,305.5C 114.702,274.965 145.202,244.299 175.5,213.5 Z M 265.5,271.5 C 315.331,270.501 365.331,270.168 415.5,270.5C 415.667,307.502 415.5,344.502 415,381.5C 412.96,391.256 408.127,399.256 400.5,405.5C 355.479,360.812 310.479,316.146 265.5,271.5 Z"/></g>
</svg>
